<svg preserveAspectRatio="none" width="100%" height="100%" overflow="visible" style="display: block;" viewBox="0 0 100 100" fill="none" xmlns="http://www.w3.org/2000/svg">
<rect width="100" height="100" rx="50" fill="#1C274D"/>
<g transform="translate(20 20)">
<path d="M52.5 40.2273V27.7438C52.5 17.0223 52.5 11.6615 49.205 8.33075C45.9099 5 40.6066 5 30 5C19.3934 5 14.0901 5 10.795 8.33075C7.5 11.6615 7.5 17.0223 7.5 27.7438V40.2273C7.5 47.9687 7.5 51.8394 9.33527 53.5308C10.2105 54.3374 11.3154 54.8442 12.4923 54.9788C14.96 55.2612 17.8418 52.7123 23.6054 47.6146C26.1531 45.3612 27.4269 44.2345 28.9007 43.9377C29.6264 43.7915 30.3736 43.7915 31.0993 43.9377C32.5731 44.2345 33.8469 45.3612 36.3946 47.6146C42.1582 52.7123 45.04 55.2612 47.5077 54.9788C48.6846 54.8442 49.7895 54.3374 50.6647 53.5308C52.5 51.8394 52.5 47.9687 52.5 40.2273Z" stroke="white" stroke-width="3.75"/>
<path d="M37.5 15H22.5" stroke="white" stroke-width="3.75" stroke-linecap="round"/>
</g>
</svg>
