<svg width="28" height="28" viewBox="0 0 28 28" fill="none" xmlns="http://www.w3.org/2000/svg">
<path d="M15.8082 23.5199C15.5049 23.6482 15.1782 23.7649 14.8282 23.8816L12.9849 24.4882C8.35324 25.9816 5.91491 24.7332 4.40991 20.1016L2.91658 15.4932C1.42324 10.8616 2.65991 8.41158 7.29158 6.91824L9.08824 6.32324C8.86658 6.88324 8.67991 7.52491 8.50491 8.24824L7.36158 13.1366C6.07824 18.6316 7.95658 21.6649 13.4516 22.9716L15.4116 23.4382C15.5399 23.4732 15.6799 23.4966 15.8082 23.5199Z" fill="white"/>
<path d="M20.0316 3.7446L18.0832 3.2896C14.1866 2.36794 11.8649 3.12627 10.4999 5.9496C10.1499 6.66127 9.86988 7.5246 9.63655 8.51627L8.49322 13.4046C7.34988 18.2813 8.85488 20.6846 13.7199 21.8396L15.6799 22.3063C16.3566 22.4696 16.9866 22.5746 17.5699 22.6213C21.2099 22.9713 23.1466 21.2679 24.1266 17.0563L25.2699 12.1796C26.4132 7.30294 24.9199 4.88794 20.0316 3.7446Z" fill="white"/>
</svg>
