<svg width="1440" height="270" viewBox="0 0 1440 270" fill="none" xmlns="http://www.w3.org/2000/svg">
<g clip-path="url(#clip0_146_20981)">
<mask id="mask0_146_20981" style="mask-type:luminance" maskUnits="userSpaceOnUse" x="0" y="0" width="1440" height="270">
<path d="M1440 0H0V270H1440V0Z" fill="white"/>
</mask>
<g mask="url(#mask0_146_20981)">
<path d="M1440 214H0V270H1440V214Z" fill="#102643"/>
<mask id="mask1_146_20981" style="mask-type:luminance" maskUnits="userSpaceOnUse" x="0" y="0" width="1440" height="270">
<path d="M1440 0H0V270H1440V0Z" fill="white"/>
</mask>
<g mask="url(#mask1_146_20981)">
<mask id="mask2_146_20981" style="mask-type:luminance" maskUnits="userSpaceOnUse" x="0" y="0" width="1440" height="270">
<path d="M1440 0H0V270H1440V0Z" fill="white"/>
</mask>
<g mask="url(#mask2_146_20981)">
<path d="M969.006 134.061C979.926 134.061 989.027 137.7 996.307 144.98C1003.59 152.26 1007.23 161.447 1007.23 172.54C1007.23 183.633 1003.59 192.821 996.307 200.101C989.027 207.381 979.839 211.021 968.746 211.021C957.826 211.02 948.726 207.38 941.446 200.101C934.34 192.821 930.786 183.633 930.786 172.54C930.786 165.26 932.433 158.76 935.727 153.04C939.02 147.147 943.526 142.554 949.246 139.261C955.139 135.794 961.726 134.061 969.006 134.061ZM430.242 176.811C429.545 176.147 428.532 175.932 427.625 176.256C426.953 176.496 426.412 177.007 426.134 177.664L423.376 184.183C423.198 184.605 423.386 185.095 423.811 185.267C426.303 186.273 428.01 186.32 428.202 186.32C428.585 186.32 430.407 186.238 432.951 185.201C435.078 184.334 435.271 181.6 433.607 180.016L430.242 176.811ZM116.993 172.593C116.964 171.979 116.798 170.476 116.009 168.503C115.14 166.331 113.934 164.638 112.894 163.542L112.688 163.331L112.477 163.125C111.38 162.085 109.687 160.878 107.516 160.01C105.542 159.22 104.039 159.055 103.426 159.026L103.219 159.021C103.017 159.021 101.4 159.07 99.0508 160.01C96.7438 160.933 94.8448 162.271 93.5322 163.553C92.4943 164.649 91.2934 166.339 90.4277 168.503C89.5255 170.759 89.4385 172.399 89.4385 172.801L89.4492 173.118C89.4731 173.522 89.5464 174.175 89.7559 175.013C89.9981 175.981 90.3677 176.975 90.8467 177.919C91.5308 179.098 92.4621 180.372 93.6602 181.593C95.0432 183.002 96.4465 184.002 97.6113 184.653C98.6973 185.26 99.8695 185.719 101.007 186.003C102.124 186.282 102.912 186.32 103.219 186.32C103.715 186.32 104.617 186.258 105.783 185.963C106.963 185.664 108.097 185.205 109.085 184.653C110.153 184.056 111.403 183.165 112.623 181.945C113.843 180.725 114.734 179.475 115.331 178.407C115.938 177.321 116.396 176.15 116.681 175.013C116.89 174.175 116.964 173.522 116.988 173.118L116.998 172.801L116.993 172.593ZM981.95 168.991C980.713 165.793 976.667 165.718 974.214 168.113L963.968 178.115C961.755 180.275 961.838 183.923 964.709 185.071C966.964 185.973 968.604 186.06 969.006 186.061C969.526 186.061 970.527 185.994 971.84 185.648C973.093 185.319 974.313 184.815 975.405 184.197C976.478 183.555 977.621 182.686 978.694 181.593C979.713 180.554 980.451 179.536 980.951 178.696C981.633 177.453 982.125 176.174 982.429 174.976C982.749 173.711 982.786 172.841 982.786 172.54C982.786 172.472 982.76 171.085 981.95 168.991ZM969.191 172.095C969.123 172.163 969.138 172.276 969.222 172.324L978.085 163.461C978.157 163.389 978.157 163.273 978.084 163.202L969.191 172.095ZM429.466 169.788L436.912 162.696C435.132 161.249 432.659 162.243 431.765 164.355L429.466 169.788ZM-0.101562 50.8809C-0.101562 11.6796 28 -0.0996094 48.8789 -0.0996094L49.7959 -0.09375C75.5705 0.232746 98.033 14.2976 110.2 35.1146C114.224 41.9995 120.92 47.2025 128.789 48.4926C144.377 51.048 159.139 56.3586 172.618 64.566C180.61 69.4328 190.824 69.4876 198.847 64.6715C219.097 52.5157 242.095 46.7003 266.398 46.7002C290.84 46.7002 313.916 52.6399 334.199 64.9659C342.196 69.825 352.41 69.8268 360.409 64.9728C380.781 52.6114 403.958 46.7002 428.462 46.7002C437.331 46.7002 446.02 47.4827 454.462 49.0686C466.481 51.3266 479.07 44.3805 485.443 33.9428C497.908 13.5277 520.395 -0.0995878 546.065 -0.0996094C577.359 -0.0996094 603.923 20.152 613.366 48.2644C613.834 49.6583 615.146 50.6006 616.616 50.6006L617.94 50.6123C625.601 50.7477 632.817 52.0562 639.483 54.3312C645.754 56.4712 652.639 56.4537 658.903 54.2929C665.839 51.9001 673.284 50.6006 681.033 50.6006H686.38C690.476 50.6006 694.504 51.0177 698.414 51.8187C702.863 52.7304 707.49 52.6979 711.846 51.4099C721.172 48.6523 730.887 47.2207 740.862 47.2207C752.206 47.2207 763.499 48.9706 774.378 52.7319C779.782 54.6004 785.679 54.6115 791.101 52.7948C791.147 52.7795 791.193 52.7643 791.238 52.749L791.704 52.5938L792.172 52.4473C796.833 50.9907 801.585 49.7971 806.42 48.8906L806.692 48.8398L806.966 48.792C812.85 47.7537 818.82 47.2207 824.843 47.2207L826.183 47.2285C844.505 47.4488 861.863 52.1934 877.07 61.5154C885.107 66.442 895.387 66.881 903.623 62.2939C922.429 51.819 943.549 46.7002 965.887 46.7002C976.987 46.7002 987.892 48.0712 998.427 50.9024C1002.31 51.9459 1006.39 51.9593 1010.35 51.2508C1013.69 50.6517 1017.13 50.3408 1020.61 50.3408H1028.11C1035.48 50.3408 1042.58 51.5085 1049.23 53.6692C1055.14 55.5899 1061.57 55.5935 1067.49 53.7114C1073.85 51.6909 1080.63 50.6006 1087.66 50.6006H1092.35C1097.99 50.6006 1103.5 51.3955 1108.74 52.8962C1111.47 53.6747 1114.37 53.7859 1117.11 53.1043C1122.07 51.8749 1126.07 48.2368 1128.04 43.5259C1138.75 17.9043 1164.05 -0.0995101 1193.56 -0.0996094C1224.85 -0.0996094 1251.42 20.1529 1260.86 48.2663C1261.33 49.6596 1262.64 50.6006 1264.11 50.6006C1273.58 50.6006 1282.38 52.3866 1290.33 55.5767C1297.05 58.2703 1304.64 58.5444 1311.32 55.7648C1326.8 49.3212 1343.3 46.7002 1359.56 46.7002C1385.35 46.7002 1418.16 53.3941 1440 71.7422C1450.81 80.6577 1437.46 91.1454 1442 104.5C1442.3 105.356 1440 106.925 1440 107.829C1440 108.619 1440.15 109.402 1440.43 110.141C1446.49 126.253 1445.8 142.187 1440.42 155.667C1440.16 156.317 1440.67 157.152 1441 157.768C1445.47 166.077 1439.9 174.58 1441 182.557C1441.93 188.302 1441 194 1441 199.58C1441 228.927 1457.23 250.892 1433.66 269.9C1411.35 287.527 1385.76 269.9 1359.82 269.9C1342.01 269.9 1324.11 277.655 1307.25 269.974C1307.15 269.926 1307.03 269.9 1306.91 269.9C1306.8 269.9 1306.69 269.872 1306.58 269.833C1306.24 269.712 1305.91 269.702 1305.57 269.743C1303.76 269.962 1301.77 270.508 1300.07 271.158C1290.52 274.795 1279.51 269.9 1267.43 269.9C1259.04 269.9 1250.84 272.617 1243.17 272.674C1235.85 272.729 1227.69 272.774 1220.37 272.623C1213.06 272.471 1205.15 269.9 1196.89 269.9H1193.56C1182.08 269.9 1171.24 274.289 1161.65 275.465C1150.52 276.829 1135.14 276.829 1124.01 275.465C1114.41 274.289 1103.57 269.9 1092.1 269.9C1084.16 269.9 1076.53 272.205 1069.4 272.17C1062.87 272.139 1055.79 272.132 1049.26 272.096C1042.46 272.06 1035.18 269.9 1027.62 269.9H1018.68C1015.79 269.9 1012.93 270.31 1010.14 270.407C1006.33 270.54 1002.44 270.663 998.673 271.222C988.071 272.792 977.085 269.9 965.887 269.9C946.625 269.9 928.269 277.704 911.521 274.772C903.323 273.336 894.045 273.987 885.722 273.974C876.558 273.959 866.322 269.9 855.522 269.9C845.367 269.9 835.711 273.493 826.976 273.889C817.99 274.296 807.256 274.306 798.271 273.886C789.576 273.479 779.963 269.9 769.853 269.9C759.742 269.9 750.128 273.48 741.433 273.886C732.448 274.306 721.714 274.296 712.729 273.889C703.994 273.493 694.337 269.9 684.183 269.9C676.436 269.9 668.98 272.103 662.001 272.066C655.606 272.033 648.7 272.037 642.305 272.048C635.387 272.061 627.895 269.9 619.941 269.9C611.546 269.9 603.347 272.617 595.679 272.674C588.354 272.729 580.201 272.774 572.878 272.623C565.564 272.471 557.653 269.9 549.397 269.9H546.065C534.531 269.9 523.64 274.459 514.011 274.59C505.091 274.711 494.94 273.877 486.158 275.445C468.464 278.605 448.959 269.9 428.462 269.9C406.046 269.9 384.275 280.918 364.324 269.9C363.69 269.55 363.06 269.319 362.434 269.18C353.339 267.167 342.039 274.724 332.995 276.957C313.031 281.886 290.396 269.9 266.398 269.9C243.982 269.9 222.212 280.918 202.261 269.9C201.813 269.653 201.368 269.467 200.925 269.333C192.032 266.636 180.595 274.737 171.562 276.917C152.011 281.635 129.812 269.9 106.339 269.9C95.4024 269.9 84.6587 272.69 74.2722 271.2C70.4944 270.658 66.5966 270.556 62.782 270.437C59.8593 270.346 56.8763 269.9 53.8535 269.9H46.502C8.61325 269.9 -0.101562 264.285 -0.101562 226.396V50.8809ZM141.428 173.818C141.207 184.287 137.571 193.048 130.519 200.101C123.412 207.38 114.312 211.02 103.219 211.021C92.2987 211.021 83.198 207.381 75.918 200.101C68.6381 192.821 64.9981 183.721 64.998 172.801C64.998 165.521 66.6451 158.933 69.9385 153.04C73.2318 147.147 77.8255 142.554 83.7188 139.261C89.6121 135.967 96.1121 134.32 103.219 134.32C110.499 134.32 117.085 135.967 122.979 139.261C128.872 142.554 133.378 147.147 136.498 153.04C139.791 158.933 141.438 165.521 141.438 172.801L141.428 173.818ZM422.081 169.039C419.599 166.675 415.534 166.786 414.334 169.997C413.752 171.555 413.659 172.595 413.645 172.801C413.659 173.018 413.757 174.14 414.391 175.819C415.249 178.095 417.923 178.853 420.187 177.964L421.369 177.499L426.167 172.93L422.081 169.039ZM426.859 172.93C427.106 173.17 427.517 173.084 427.647 172.766L431.075 164.351C431.995 162.094 430.9 159.28 428.462 159.28C428.227 159.28 426.549 159.334 424.116 160.303C420.348 161.803 420.375 166.604 423.278 169.436L426.859 172.93L426.518 173.264L426.167 172.93L421.369 177.499L422.721 176.969L421.04 178.607L418.236 179.609C417.522 179.864 417.262 180.743 417.778 181.298C418.494 182.021 419.359 182.748 420.349 183.419C421.591 184.26 423.224 183.623 423.79 182.234L424.005 181.705C424.771 179.825 422.952 177.925 421.04 178.607L422.721 176.969L425.941 175.703C426.328 175.551 426.637 175.247 426.794 174.861L426.838 174.753C427.048 174.238 426.921 173.647 426.518 173.264L426.859 172.93ZM427.892 173.51C427.814 173.692 427.857 173.904 427.999 174.042L427.675 174.366C427.625 174.319 427.542 174.336 427.516 174.399L427.419 174.628C427.325 174.849 427.544 175.073 427.767 174.986C427.951 174.913 427.998 174.674 427.855 174.537L427.675 174.366L427.999 174.042C428.378 174.412 428.939 174.525 429.432 174.331L435.715 171.863C439.198 170.496 440.837 166.496 438.191 163.851C437.769 163.428 437.339 163.044 436.912 162.696L429.466 169.788L427.892 173.51ZM442.965 172.312C442.833 171.521 441.981 171.13 441.226 171.399L435.991 173.268C433.023 174.328 432.192 178.132 434.448 180.333L435.326 181.19C436.323 182.162 437.906 182.287 438.886 181.298C440.269 179.81 441.492 177.891 442.273 175.819C442.928 174.084 443.011 172.945 443.021 172.782C443.017 172.72 443.006 172.558 442.965 172.312ZM465.632 173.851C465.422 184.645 461.959 193.568 455.242 200.62C448.309 207.727 439.382 211.28 428.462 211.28C422.915 211.28 417.802 210.327 413.122 208.42C408.616 206.513 404.715 203.913 401.422 200.62C398.129 197.327 395.529 193.254 393.622 188.4C391.997 183.85 391.134 178.995 391.032 173.836L391.022 172.801C391.022 161.534 394.489 152.347 401.422 145.24C408.355 137.96 417.282 134.32 428.202 134.32C439.295 134.32 448.309 137.96 455.242 145.24C462.176 152.347 465.643 161.534 465.643 172.801L465.632 173.851ZM969.222 172.324C969.138 172.276 969.123 172.163 969.191 172.095L978.084 163.202C976.991 162.145 975.269 160.9 973.044 160.01C971.071 159.221 969.568 159.055 968.954 159.026L968.746 159.021C968.535 159.021 967.008 159.073 964.802 159.947C962.661 160.795 960.931 162.003 959.763 163.11L959.537 163.331C958.372 164.496 957.058 166.312 956.153 168.596C955.279 170.801 955.227 172.328 955.227 172.54L955.23 172.68C955.252 173.143 955.388 174.554 956.153 176.485C957.058 178.769 958.372 180.585 959.537 181.75C959.609 181.822 959.726 181.82 959.797 181.749L969.222 172.324Z" fill="#102643"/>
<path d="M106.338 98.7004C127.658 98.7004 145.252 105.72 159.118 119.76C173.158 133.8 180.178 151.48 180.178 172.8C180.178 194.12 173.158 211.8 159.118 225.84C145.252 239.88 127.658 246.9 106.338 246.9C89.5251 246.9 74.8784 241.7 62.3984 231.3L57.9784 243H29.8984V51.9004H67.8584V110.14C79.1251 102.514 91.9518 98.7004 106.338 98.7004ZM75.9184 200.1C83.1984 207.38 92.2984 211.02 103.218 211.02C114.312 211.02 123.412 207.38 130.518 200.1C137.798 192.82 141.438 183.72 141.438 172.8C141.438 165.52 139.792 158.934 136.498 153.04C133.378 147.147 128.872 142.554 122.978 139.26C117.085 135.967 110.498 134.32 103.218 134.32C96.1118 134.32 89.6118 135.967 83.7184 139.26C77.8251 142.554 73.2318 147.147 69.9384 153.04C66.6451 158.934 64.9984 165.52 64.9984 172.8C64.9984 183.72 68.6384 192.82 75.9184 200.1Z" fill="white" fill-opacity="0.1"/>
<path d="M266.398 246.9C252.011 246.9 239.012 243.694 227.399 237.28C215.786 230.867 206.686 222.027 200.099 210.76C193.686 199.32 190.479 186.667 190.479 172.8C190.479 151.48 197.672 133.8 212.059 119.76C226.446 105.72 244.558 98.7002 266.398 98.7002C288.065 98.7002 306.092 105.72 320.479 119.76C334.866 133.8 342.059 151.48 342.059 172.8C342.059 193.947 334.779 211.627 320.219 225.84C305.832 239.88 287.891 246.9 266.398 246.9ZM266.398 211.28C277.318 211.28 286.245 207.727 293.178 200.62C300.111 193.34 303.579 184.067 303.579 172.8C303.579 161.534 300.111 152.347 293.178 145.24C286.245 137.96 277.232 134.32 266.139 134.32C255.219 134.32 246.292 137.96 239.359 145.24C232.426 152.347 228.959 161.534 228.959 172.8C228.959 178.347 229.826 183.547 231.559 188.4C233.466 193.254 236.066 197.327 239.359 200.62C242.652 203.914 246.552 206.514 251.059 208.42C255.739 210.327 260.851 211.28 266.398 211.28Z" fill="white" fill-opacity="0.1"/>
<path d="M428.462 246.9C414.076 246.9 401.076 243.694 389.462 237.28C377.849 230.867 368.749 222.027 362.162 210.76C355.749 199.32 352.542 186.667 352.542 172.8C352.542 151.48 359.736 133.8 374.122 119.76C388.509 105.72 406.622 98.7002 428.462 98.7002C450.129 98.7002 468.156 105.72 482.542 119.76C496.929 133.8 504.122 151.48 504.122 172.8C504.122 193.947 496.842 211.627 482.282 225.84C467.896 239.88 449.956 246.9 428.462 246.9ZM428.462 211.28C439.382 211.28 448.309 207.727 455.242 200.62C462.176 193.34 465.642 184.067 465.642 172.8C465.642 161.534 462.176 152.347 455.242 145.24C448.309 137.96 439.296 134.32 428.202 134.32C417.282 134.32 408.356 137.96 401.422 145.24C394.489 152.347 391.022 161.534 391.022 172.8C391.022 178.347 391.889 183.547 393.622 188.4C395.529 193.254 398.129 197.327 401.422 200.62C404.716 203.914 408.616 206.514 413.122 208.42C417.802 210.327 422.916 211.28 428.462 211.28Z" fill="white" fill-opacity="0.1"/>
<path d="M656.045 243H610.025L565.045 175.92V243H527.085V51.9004H565.045V165L607.165 102.6H651.105L603.525 169.42L656.045 243Z" fill="white" fill-opacity="0.1"/>
<path d="M824.842 99.2202C839.402 99.2202 851.276 104.42 860.462 114.82C869.822 125.22 874.502 138.567 874.502 154.86V243H836.542V161.1C836.542 142.034 829.436 132.5 815.222 132.5C809.676 132.5 804.822 133.887 800.662 136.66C796.676 139.26 793.642 143.16 791.562 148.36C789.482 153.56 788.442 159.8 788.442 167.08V243H751.262V161.1C751.262 142.034 744.416 132.5 730.722 132.5C722.056 132.5 715.296 135.534 710.442 141.6C705.589 147.667 703.162 156.16 703.162 167.08V243H665.202V102.6H691.722L698.742 120.02C703.942 113.607 710.182 108.58 717.462 104.94C724.916 101.127 732.716 99.2202 740.862 99.2202C749.702 99.2202 757.676 101.214 764.782 105.2C771.889 109.187 777.436 114.734 781.422 121.84C783.156 119.414 784.976 117.247 786.882 115.34C788.789 113.26 790.869 111.44 793.122 109.88C795.376 108.147 797.716 106.674 800.142 105.46C802.569 104.074 805.082 102.947 807.682 102.08C810.456 101.214 813.229 100.52 816.002 99.9998C818.949 99.4802 821.896 99.2202 824.842 99.2202Z" fill="white" fill-opacity="0.1"/>
<path d="M1016.07 102.34H1044.41V242.74H1014.51L1011.39 230.26C998.56 241.354 983.393 246.9 965.886 246.9C944.74 246.9 927.146 239.88 913.106 225.84C899.24 211.627 892.306 193.86 892.306 172.54C892.306 151.394 899.24 133.8 913.106 119.76C927.146 105.72 944.74 98.7002 965.886 98.7002C983.74 98.7002 999.08 104.42 1011.91 115.86L1016.07 102.34ZM941.446 200.1C948.726 207.38 957.826 211.02 968.746 211.02C979.84 211.02 989.026 207.38 996.306 200.1C1003.59 192.82 1007.23 183.634 1007.23 172.54C1007.23 161.447 1003.59 152.26 996.306 144.98C989.026 137.7 979.926 134.06 969.006 134.06C961.726 134.06 955.14 135.794 949.246 139.26C943.526 142.554 939.02 147.147 935.726 153.04C932.433 158.76 930.786 165.26 930.786 172.54C930.786 183.634 934.34 192.82 941.446 200.1Z" fill="white" fill-opacity="0.1"/>
<path d="M1144.88 101.82H1157.36V137.7H1140.98C1130.23 137.7 1122.52 140.214 1117.84 145.24C1113.33 150.267 1111.08 158.5 1111.08 169.94V243H1073.12V102.6H1097.56L1104.32 119.76C1113.85 107.8 1127.37 101.82 1144.88 101.82Z" fill="white" fill-opacity="0.1"/>
<path d="M1303.54 243H1257.52L1212.54 175.92V243H1174.58V51.9004H1212.54V165L1254.66 102.6H1298.6L1251.02 169.42L1303.54 243Z" fill="white" fill-opacity="0.1"/>
<path d="M1359.82 246.9C1348.21 246.9 1337.89 244.82 1328.88 240.66C1320.04 236.5 1313.11 230.607 1308.08 222.98C1303.23 215.354 1300.8 206.6 1300.8 196.72H1337.72C1337.89 200.88 1338.93 204.434 1340.84 207.38C1342.92 210.154 1345.69 212.234 1349.16 213.62C1352.63 214.834 1356.61 215.44 1361.12 215.44C1364.76 215.44 1368.05 214.92 1371 213.88C1373.95 212.84 1376.37 211.28 1378.28 209.2C1380.19 206.947 1381.14 204.347 1381.14 201.4C1381.14 197.067 1378.89 193.86 1374.38 191.78C1369.87 189.7 1363.11 187.88 1354.1 186.32C1348.38 185.454 1343.61 184.587 1339.8 183.72C1336.16 182.854 1331.74 181.38 1326.54 179.3C1321.51 177.047 1317.44 174.534 1314.32 171.76C1311.37 168.987 1308.77 165.174 1306.52 160.32C1304.27 155.467 1303.14 149.834 1303.14 143.42C1303.14 130.247 1308.34 119.5 1318.74 111.18C1329.14 102.86 1342.75 98.7002 1359.56 98.7002C1376.55 98.7002 1390.15 103.034 1400.38 111.7C1410.78 120.194 1415.98 131.46 1415.98 145.5H1379.84C1379.84 134.407 1372.82 128.86 1358.78 128.86C1352.89 128.86 1348.29 130.074 1345 132.5C1341.71 134.927 1340.06 138.22 1340.06 142.38C1340.06 144.114 1340.49 145.76 1341.36 147.32C1342.4 148.707 1343.53 149.834 1344.74 150.7C1346.13 151.567 1348.21 152.434 1350.98 153.3C1353.75 153.994 1356.09 154.514 1358 154.86C1359.91 155.207 1362.77 155.727 1366.58 156.42C1369.87 157.114 1372.21 157.634 1373.6 157.98C1374.99 158.154 1377.33 158.587 1380.62 159.28C1383.91 159.974 1386.34 160.667 1387.9 161.36C1389.63 161.88 1391.89 162.66 1394.66 163.7C1397.61 164.74 1399.77 165.867 1401.16 167.08C1402.72 168.12 1404.54 169.42 1406.62 170.98C1408.87 172.54 1410.61 174.274 1411.82 176.18C1413.03 178.087 1414.25 180.167 1415.46 182.42C1416.67 184.674 1417.45 187.274 1417.8 190.22C1418.32 193.167 1418.58 196.287 1418.58 199.58C1418.58 213.967 1413.21 225.494 1402.46 234.16C1391.71 242.654 1377.5 246.9 1359.82 246.9Z" fill="white" fill-opacity="0.1"/>
<mask id="mask3_146_20981" style="mask-type:luminance" maskUnits="userSpaceOnUse" x="28" y="50" width="1392" height="198">
<path d="M1419.9 50.9004H28.8984V247.9H1419.9V50.9004Z" fill="white"/>
<path d="M106.338 98.7004C127.658 98.7004 145.252 105.72 159.118 119.76C173.158 133.8 180.178 151.48 180.178 172.8C180.178 194.12 173.158 211.8 159.118 225.84C145.252 239.88 127.658 246.9 106.338 246.9C89.5251 246.9 74.8784 241.7 62.3984 231.3L57.9784 243H29.8984V51.9004H67.8584V110.14C79.1251 102.514 91.9518 98.7004 106.338 98.7004ZM75.9184 200.1C83.1984 207.38 92.2984 211.02 103.218 211.02C114.312 211.02 123.412 207.38 130.518 200.1C137.798 192.82 141.438 183.72 141.438 172.8C141.438 165.52 139.792 158.934 136.498 153.04C133.378 147.147 128.872 142.554 122.978 139.26C117.085 135.967 110.498 134.32 103.218 134.32C96.1118 134.32 89.6118 135.967 83.7184 139.26C77.8251 142.554 73.2318 147.147 69.9384 153.04C66.6451 158.934 64.9984 165.52 64.9984 172.8C64.9984 183.72 68.6384 192.82 75.9184 200.1Z" fill="black"/>
<path d="M266.399 246.9C252.012 246.9 239.012 243.694 227.399 237.28C215.786 230.867 206.686 222.027 200.099 210.76C193.686 199.32 190.479 186.667 190.479 172.8C190.479 151.48 197.672 133.8 212.059 119.76C226.446 105.72 244.559 98.7002 266.399 98.7002C288.066 98.7002 306.092 105.72 320.479 119.76C334.866 133.8 342.059 151.48 342.059 172.8C342.059 193.947 334.779 211.627 320.219 225.84C305.832 239.88 287.892 246.9 266.399 246.9ZM266.399 211.28C277.319 211.28 286.246 207.727 293.179 200.62C300.112 193.34 303.579 184.067 303.579 172.8C303.579 161.534 300.112 152.347 293.179 145.24C286.246 137.96 277.232 134.32 266.139 134.32C255.219 134.32 246.292 137.96 239.359 145.24C232.426 152.347 228.959 161.534 228.959 172.8C228.959 178.347 229.826 183.547 231.559 188.4C233.466 193.254 236.066 197.327 239.359 200.62C242.652 203.914 246.552 206.514 251.059 208.42C255.739 210.327 260.852 211.28 266.399 211.28Z" fill="black"/>
<path d="M428.462 246.9C414.076 246.9 401.076 243.694 389.462 237.28C377.849 230.867 368.749 222.027 362.162 210.76C355.749 199.32 352.542 186.667 352.542 172.8C352.542 151.48 359.736 133.8 374.122 119.76C388.509 105.72 406.622 98.7002 428.462 98.7002C450.129 98.7002 468.156 105.72 482.542 119.76C496.929 133.8 504.122 151.48 504.122 172.8C504.122 193.947 496.842 211.627 482.282 225.84C467.896 239.88 449.956 246.9 428.462 246.9ZM428.462 211.28C439.382 211.28 448.309 207.727 455.242 200.62C462.176 193.34 465.642 184.067 465.642 172.8C465.642 161.534 462.176 152.347 455.242 145.24C448.309 137.96 439.296 134.32 428.202 134.32C417.282 134.32 408.356 137.96 401.422 145.24C394.489 152.347 391.022 161.534 391.022 172.8C391.022 178.347 391.889 183.547 393.622 188.4C395.529 193.254 398.129 197.327 401.422 200.62C404.716 203.914 408.616 206.514 413.122 208.42C417.802 210.327 422.916 211.28 428.462 211.28Z" fill="black"/>
<path d="M656.045 243H610.025L565.045 175.92V243H527.085V51.9004H565.045V165L607.165 102.6H651.105L603.525 169.42L656.045 243Z" fill="black"/>
<path d="M824.842 99.2202C839.402 99.2202 851.276 104.42 860.462 114.82C869.822 125.22 874.502 138.567 874.502 154.86V243H836.542V161.1C836.542 142.034 829.436 132.5 815.222 132.5C809.676 132.5 804.822 133.887 800.662 136.66C796.676 139.26 793.642 143.16 791.562 148.36C789.482 153.56 788.442 159.8 788.442 167.08V243H751.262V161.1C751.262 142.034 744.416 132.5 730.722 132.5C722.056 132.5 715.296 135.534 710.442 141.6C705.589 147.667 703.162 156.16 703.162 167.08V243H665.202V102.6H691.722L698.742 120.02C703.942 113.607 710.182 108.58 717.462 104.94C724.916 101.127 732.716 99.2202 740.862 99.2202C749.702 99.2202 757.676 101.214 764.782 105.2C771.889 109.187 777.436 114.734 781.422 121.84C783.156 119.414 784.976 117.247 786.882 115.34C788.789 113.26 790.869 111.44 793.122 109.88C795.376 108.147 797.716 106.674 800.142 105.46C802.569 104.074 805.082 102.947 807.682 102.08C810.456 101.214 813.229 100.52 816.002 99.9998C818.949 99.4802 821.896 99.2202 824.842 99.2202Z" fill="black"/>
<path d="M1016.07 102.34H1044.41V242.74H1014.51L1011.39 230.26C998.56 241.354 983.393 246.9 965.886 246.9C944.74 246.9 927.146 239.88 913.106 225.84C899.24 211.627 892.306 193.86 892.306 172.54C892.306 151.394 899.24 133.8 913.106 119.76C927.146 105.72 944.74 98.7002 965.886 98.7002C983.74 98.7002 999.08 104.42 1011.91 115.86L1016.07 102.34ZM941.446 200.1C948.726 207.38 957.826 211.02 968.746 211.02C979.84 211.02 989.026 207.38 996.306 200.1C1003.59 192.82 1007.23 183.634 1007.23 172.54C1007.23 161.447 1003.59 152.26 996.306 144.98C989.026 137.7 979.926 134.06 969.006 134.06C961.726 134.06 955.14 135.794 949.246 139.26C943.526 142.554 939.02 147.147 935.726 153.04C932.433 158.76 930.786 165.26 930.786 172.54C930.786 183.634 934.34 192.82 941.446 200.1Z" fill="black"/>
<path d="M1144.88 101.82H1157.36V137.7H1140.98C1130.23 137.7 1122.52 140.214 1117.84 145.24C1113.33 150.267 1111.08 158.5 1111.08 169.94V243H1073.12V102.6H1097.56L1104.32 119.76C1113.85 107.8 1127.37 101.82 1144.88 101.82Z" fill="black"/>
<path d="M1303.54 243H1257.52L1212.54 175.92V243H1174.58V51.9004H1212.54V165L1254.66 102.6H1298.6L1251.02 169.42L1303.54 243Z" fill="black"/>
<path d="M1359.82 246.9C1348.21 246.9 1337.89 244.82 1328.88 240.66C1320.04 236.5 1313.11 230.607 1308.08 222.98C1303.23 215.354 1300.8 206.6 1300.8 196.72H1337.72C1337.89 200.88 1338.93 204.434 1340.84 207.38C1342.92 210.154 1345.69 212.234 1349.16 213.62C1352.63 214.834 1356.61 215.44 1361.12 215.44C1364.76 215.44 1368.05 214.92 1371 213.88C1373.95 212.84 1376.37 211.28 1378.28 209.2C1380.19 206.947 1381.14 204.347 1381.14 201.4C1381.14 197.067 1378.89 193.86 1374.38 191.78C1369.87 189.7 1363.11 187.88 1354.1 186.32C1348.38 185.454 1343.61 184.587 1339.8 183.72C1336.16 182.854 1331.74 181.38 1326.54 179.3C1321.51 177.047 1317.44 174.534 1314.32 171.76C1311.37 168.987 1308.77 165.174 1306.52 160.32C1304.27 155.467 1303.14 149.834 1303.14 143.42C1303.14 130.247 1308.34 119.5 1318.74 111.18C1329.14 102.86 1342.75 98.7002 1359.56 98.7002C1376.55 98.7002 1390.15 103.034 1400.38 111.7C1410.78 120.194 1415.98 131.46 1415.98 145.5H1379.84C1379.84 134.407 1372.82 128.86 1358.78 128.86C1352.89 128.86 1348.29 130.074 1345 132.5C1341.71 134.927 1340.06 138.22 1340.06 142.38C1340.06 144.114 1340.49 145.76 1341.36 147.32C1342.4 148.707 1343.53 149.834 1344.74 150.7C1346.13 151.567 1348.21 152.434 1350.98 153.3C1353.75 153.994 1356.09 154.514 1358 154.86C1359.91 155.207 1362.77 155.727 1366.58 156.42C1369.87 157.114 1372.21 157.634 1373.6 157.98C1374.99 158.154 1377.33 158.587 1380.62 159.28C1383.91 159.974 1386.34 160.667 1387.9 161.36C1389.63 161.88 1391.89 162.66 1394.66 163.7C1397.61 164.74 1399.77 165.867 1401.16 167.08C1402.72 168.12 1404.54 169.42 1406.62 170.98C1408.87 172.54 1410.61 174.274 1411.82 176.18C1413.03 178.087 1414.25 180.167 1415.46 182.42C1416.67 184.674 1417.45 187.274 1417.8 190.22C1418.32 193.167 1418.58 196.287 1418.58 199.58C1418.58 213.967 1413.21 225.494 1402.46 234.16C1391.71 242.654 1377.5 246.9 1359.82 246.9Z" fill="black"/>
</mask>
<g mask="url(#mask3_146_20981)">
<path d="M106.338 98.7004C127.658 98.7004 145.252 105.72 159.118 119.76C173.158 133.8 180.178 151.48 180.178 172.8C180.178 194.12 173.158 211.8 159.118 225.84C145.252 239.88 127.658 246.9 106.338 246.9C89.5251 246.9 74.8784 241.7 62.3984 231.3L57.9784 243H29.8984V51.9004H67.8584V110.14C79.1251 102.514 91.9518 98.7004 106.338 98.7004ZM75.9184 200.1C83.1984 207.38 92.2984 211.02 103.218 211.02C114.312 211.02 123.412 207.38 130.518 200.1C137.798 192.82 141.438 183.72 141.438 172.8C141.438 165.52 139.792 158.934 136.498 153.04C133.378 147.147 128.872 142.554 122.978 139.26C117.085 135.967 110.498 134.32 103.218 134.32C96.1118 134.32 89.6118 135.967 83.7184 139.26C77.8251 142.554 73.2318 147.147 69.9384 153.04C66.6451 158.934 64.9984 165.52 64.9984 172.8C64.9984 183.72 68.6384 192.82 75.9184 200.1Z" stroke="white" stroke-opacity="0.3" stroke-width="2"/>
</g>
<mask id="mask4_146_20981" style="mask-type:luminance" maskUnits="userSpaceOnUse" x="28" y="50" width="1392" height="198">
<path d="M1419.9 50.9004H28.8984V247.9H1419.9V50.9004Z" fill="white"/>
<path d="M106.338 98.7004C127.658 98.7004 145.252 105.72 159.118 119.76C173.158 133.8 180.178 151.48 180.178 172.8C180.178 194.12 173.158 211.8 159.118 225.84C145.252 239.88 127.658 246.9 106.338 246.9C89.5251 246.9 74.8784 241.7 62.3984 231.3L57.9784 243H29.8984V51.9004H67.8584V110.14C79.1251 102.514 91.9518 98.7004 106.338 98.7004ZM75.9184 200.1C83.1984 207.38 92.2984 211.02 103.218 211.02C114.312 211.02 123.412 207.38 130.518 200.1C137.798 192.82 141.438 183.72 141.438 172.8C141.438 165.52 139.792 158.934 136.498 153.04C133.378 147.147 128.872 142.554 122.978 139.26C117.085 135.967 110.498 134.32 103.218 134.32C96.1118 134.32 89.6118 135.967 83.7184 139.26C77.8251 142.554 73.2318 147.147 69.9384 153.04C66.6451 158.934 64.9984 165.52 64.9984 172.8C64.9984 183.72 68.6384 192.82 75.9184 200.1Z" fill="black"/>
<path d="M266.399 246.9C252.012 246.9 239.012 243.694 227.399 237.28C215.786 230.867 206.686 222.027 200.099 210.76C193.686 199.32 190.479 186.667 190.479 172.8C190.479 151.48 197.672 133.8 212.059 119.76C226.446 105.72 244.559 98.7002 266.399 98.7002C288.066 98.7002 306.092 105.72 320.479 119.76C334.866 133.8 342.059 151.48 342.059 172.8C342.059 193.947 334.779 211.627 320.219 225.84C305.832 239.88 287.892 246.9 266.399 246.9ZM266.399 211.28C277.319 211.28 286.246 207.727 293.179 200.62C300.112 193.34 303.579 184.067 303.579 172.8C303.579 161.534 300.112 152.347 293.179 145.24C286.246 137.96 277.232 134.32 266.139 134.32C255.219 134.32 246.292 137.96 239.359 145.24C232.426 152.347 228.959 161.534 228.959 172.8C228.959 178.347 229.826 183.547 231.559 188.4C233.466 193.254 236.066 197.327 239.359 200.62C242.652 203.914 246.552 206.514 251.059 208.42C255.739 210.327 260.852 211.28 266.399 211.28Z" fill="black"/>
<path d="M428.462 246.9C414.076 246.9 401.076 243.694 389.462 237.28C377.849 230.867 368.749 222.027 362.162 210.76C355.749 199.32 352.542 186.667 352.542 172.8C352.542 151.48 359.736 133.8 374.122 119.76C388.509 105.72 406.622 98.7002 428.462 98.7002C450.129 98.7002 468.156 105.72 482.542 119.76C496.929 133.8 504.122 151.48 504.122 172.8C504.122 193.947 496.842 211.627 482.282 225.84C467.896 239.88 449.956 246.9 428.462 246.9ZM428.462 211.28C439.382 211.28 448.309 207.727 455.242 200.62C462.176 193.34 465.642 184.067 465.642 172.8C465.642 161.534 462.176 152.347 455.242 145.24C448.309 137.96 439.296 134.32 428.202 134.32C417.282 134.32 408.356 137.96 401.422 145.24C394.489 152.347 391.022 161.534 391.022 172.8C391.022 178.347 391.889 183.547 393.622 188.4C395.529 193.254 398.129 197.327 401.422 200.62C404.716 203.914 408.616 206.514 413.122 208.42C417.802 210.327 422.916 211.28 428.462 211.28Z" fill="black"/>
<path d="M656.045 243H610.025L565.045 175.92V243H527.085V51.9004H565.045V165L607.165 102.6H651.105L603.525 169.42L656.045 243Z" fill="black"/>
<path d="M824.842 99.2202C839.402 99.2202 851.276 104.42 860.462 114.82C869.822 125.22 874.502 138.567 874.502 154.86V243H836.542V161.1C836.542 142.034 829.436 132.5 815.222 132.5C809.676 132.5 804.822 133.887 800.662 136.66C796.676 139.26 793.642 143.16 791.562 148.36C789.482 153.56 788.442 159.8 788.442 167.08V243H751.262V161.1C751.262 142.034 744.416 132.5 730.722 132.5C722.056 132.5 715.296 135.534 710.442 141.6C705.589 147.667 703.162 156.16 703.162 167.08V243H665.202V102.6H691.722L698.742 120.02C703.942 113.607 710.182 108.58 717.462 104.94C724.916 101.127 732.716 99.2202 740.862 99.2202C749.702 99.2202 757.676 101.214 764.782 105.2C771.889 109.187 777.436 114.734 781.422 121.84C783.156 119.414 784.976 117.247 786.882 115.34C788.789 113.26 790.869 111.44 793.122 109.88C795.376 108.147 797.716 106.674 800.142 105.46C802.569 104.074 805.082 102.947 807.682 102.08C810.456 101.214 813.229 100.52 816.002 99.9998C818.949 99.4802 821.896 99.2202 824.842 99.2202Z" fill="black"/>
<path d="M1016.07 102.34H1044.41V242.74H1014.51L1011.39 230.26C998.56 241.354 983.393 246.9 965.886 246.9C944.74 246.9 927.146 239.88 913.106 225.84C899.24 211.627 892.306 193.86 892.306 172.54C892.306 151.394 899.24 133.8 913.106 119.76C927.146 105.72 944.74 98.7002 965.886 98.7002C983.74 98.7002 999.08 104.42 1011.91 115.86L1016.07 102.34ZM941.446 200.1C948.726 207.38 957.826 211.02 968.746 211.02C979.84 211.02 989.026 207.38 996.306 200.1C1003.59 192.82 1007.23 183.634 1007.23 172.54C1007.23 161.447 1003.59 152.26 996.306 144.98C989.026 137.7 979.926 134.06 969.006 134.06C961.726 134.06 955.14 135.794 949.246 139.26C943.526 142.554 939.02 147.147 935.726 153.04C932.433 158.76 930.786 165.26 930.786 172.54C930.786 183.634 934.34 192.82 941.446 200.1Z" fill="black"/>
<path d="M1144.88 101.82H1157.36V137.7H1140.98C1130.23 137.7 1122.52 140.214 1117.84 145.24C1113.33 150.267 1111.08 158.5 1111.08 169.94V243H1073.12V102.6H1097.56L1104.32 119.76C1113.85 107.8 1127.37 101.82 1144.88 101.82Z" fill="black"/>
<path d="M1303.54 243H1257.52L1212.54 175.92V243H1174.58V51.9004H1212.54V165L1254.66 102.6H1298.6L1251.02 169.42L1303.54 243Z" fill="black"/>
<path d="M1359.82 246.9C1348.21 246.9 1337.89 244.82 1328.88 240.66C1320.04 236.5 1313.11 230.607 1308.08 222.98C1303.23 215.354 1300.8 206.6 1300.8 196.72H1337.72C1337.89 200.88 1338.93 204.434 1340.84 207.38C1342.92 210.154 1345.69 212.234 1349.16 213.62C1352.63 214.834 1356.61 215.44 1361.12 215.44C1364.76 215.44 1368.05 214.92 1371 213.88C1373.95 212.84 1376.37 211.28 1378.28 209.2C1380.19 206.947 1381.14 204.347 1381.14 201.4C1381.14 197.067 1378.89 193.86 1374.38 191.78C1369.87 189.7 1363.11 187.88 1354.1 186.32C1348.38 185.454 1343.61 184.587 1339.8 183.72C1336.16 182.854 1331.74 181.38 1326.54 179.3C1321.51 177.047 1317.44 174.534 1314.32 171.76C1311.37 168.987 1308.77 165.174 1306.52 160.32C1304.27 155.467 1303.14 149.834 1303.14 143.42C1303.14 130.247 1308.34 119.5 1318.74 111.18C1329.14 102.86 1342.75 98.7002 1359.56 98.7002C1376.55 98.7002 1390.15 103.034 1400.38 111.7C1410.78 120.194 1415.98 131.46 1415.98 145.5H1379.84C1379.84 134.407 1372.82 128.86 1358.78 128.86C1352.89 128.86 1348.29 130.074 1345 132.5C1341.71 134.927 1340.06 138.22 1340.06 142.38C1340.06 144.114 1340.49 145.76 1341.36 147.32C1342.4 148.707 1343.53 149.834 1344.74 150.7C1346.13 151.567 1348.21 152.434 1350.98 153.3C1353.75 153.994 1356.09 154.514 1358 154.86C1359.91 155.207 1362.77 155.727 1366.58 156.42C1369.87 157.114 1372.21 157.634 1373.6 157.98C1374.99 158.154 1377.33 158.587 1380.62 159.28C1383.91 159.974 1386.34 160.667 1387.9 161.36C1389.63 161.88 1391.89 162.66 1394.66 163.7C1397.61 164.74 1399.77 165.867 1401.16 167.08C1402.72 168.12 1404.54 169.42 1406.62 170.98C1408.87 172.54 1410.61 174.274 1411.82 176.18C1413.03 178.087 1414.25 180.167 1415.46 182.42C1416.67 184.674 1417.45 187.274 1417.8 190.22C1418.32 193.167 1418.58 196.287 1418.58 199.58C1418.58 213.967 1413.21 225.494 1402.46 234.16C1391.71 242.654 1377.5 246.9 1359.82 246.9Z" fill="black"/>
</mask>
<g mask="url(#mask4_146_20981)">
<path d="M266.399 246.9C252.012 246.9 239.012 243.694 227.399 237.28C215.786 230.867 206.686 222.027 200.099 210.76C193.686 199.32 190.479 186.667 190.479 172.8C190.479 151.48 197.672 133.8 212.059 119.76C226.446 105.72 244.559 98.7002 266.399 98.7002C288.066 98.7002 306.092 105.72 320.479 119.76C334.866 133.8 342.059 151.48 342.059 172.8C342.059 193.947 334.779 211.627 320.219 225.84C305.832 239.88 287.892 246.9 266.399 246.9ZM266.399 211.28C277.319 211.28 286.246 207.727 293.179 200.62C300.112 193.34 303.579 184.067 303.579 172.8C303.579 161.534 300.112 152.347 293.179 145.24C286.246 137.96 277.232 134.32 266.139 134.32C255.219 134.32 246.292 137.96 239.359 145.24C232.426 152.347 228.959 161.534 228.959 172.8C228.959 178.347 229.826 183.547 231.559 188.4C233.466 193.254 236.066 197.327 239.359 200.62C242.652 203.914 246.552 206.514 251.059 208.42C255.739 210.327 260.852 211.28 266.399 211.28Z" stroke="white" stroke-opacity="0.3" stroke-width="2"/>
</g>
<mask id="mask5_146_20981" style="mask-type:luminance" maskUnits="userSpaceOnUse" x="28" y="50" width="1392" height="198">
<path d="M1419.9 50.9004H28.8984V247.9H1419.9V50.9004Z" fill="white"/>
<path d="M106.338 98.7004C127.658 98.7004 145.252 105.72 159.118 119.76C173.158 133.8 180.178 151.48 180.178 172.8C180.178 194.12 173.158 211.8 159.118 225.84C145.252 239.88 127.658 246.9 106.338 246.9C89.5251 246.9 74.8784 241.7 62.3984 231.3L57.9784 243H29.8984V51.9004H67.8584V110.14C79.1251 102.514 91.9518 98.7004 106.338 98.7004ZM75.9184 200.1C83.1984 207.38 92.2984 211.02 103.218 211.02C114.312 211.02 123.412 207.38 130.518 200.1C137.798 192.82 141.438 183.72 141.438 172.8C141.438 165.52 139.792 158.934 136.498 153.04C133.378 147.147 128.872 142.554 122.978 139.26C117.085 135.967 110.498 134.32 103.218 134.32C96.1118 134.32 89.6118 135.967 83.7184 139.26C77.8251 142.554 73.2318 147.147 69.9384 153.04C66.6451 158.934 64.9984 165.52 64.9984 172.8C64.9984 183.72 68.6384 192.82 75.9184 200.1Z" fill="black"/>
<path d="M266.399 246.9C252.012 246.9 239.012 243.694 227.399 237.28C215.786 230.867 206.686 222.027 200.099 210.76C193.686 199.32 190.479 186.667 190.479 172.8C190.479 151.48 197.672 133.8 212.059 119.76C226.446 105.72 244.559 98.7002 266.399 98.7002C288.066 98.7002 306.092 105.72 320.479 119.76C334.866 133.8 342.059 151.48 342.059 172.8C342.059 193.947 334.779 211.627 320.219 225.84C305.832 239.88 287.892 246.9 266.399 246.9ZM266.399 211.28C277.319 211.28 286.246 207.727 293.179 200.62C300.112 193.34 303.579 184.067 303.579 172.8C303.579 161.534 300.112 152.347 293.179 145.24C286.246 137.96 277.232 134.32 266.139 134.32C255.219 134.32 246.292 137.96 239.359 145.24C232.426 152.347 228.959 161.534 228.959 172.8C228.959 178.347 229.826 183.547 231.559 188.4C233.466 193.254 236.066 197.327 239.359 200.62C242.652 203.914 246.552 206.514 251.059 208.42C255.739 210.327 260.852 211.28 266.399 211.28Z" fill="black"/>
<path d="M428.462 246.9C414.076 246.9 401.076 243.694 389.462 237.28C377.849 230.867 368.749 222.027 362.162 210.76C355.749 199.32 352.542 186.667 352.542 172.8C352.542 151.48 359.736 133.8 374.122 119.76C388.509 105.72 406.622 98.7002 428.462 98.7002C450.129 98.7002 468.156 105.72 482.542 119.76C496.929 133.8 504.122 151.48 504.122 172.8C504.122 193.947 496.842 211.627 482.282 225.84C467.896 239.88 449.956 246.9 428.462 246.9ZM428.462 211.28C439.382 211.28 448.309 207.727 455.242 200.62C462.176 193.34 465.642 184.067 465.642 172.8C465.642 161.534 462.176 152.347 455.242 145.24C448.309 137.96 439.296 134.32 428.202 134.32C417.282 134.32 408.356 137.96 401.422 145.24C394.489 152.347 391.022 161.534 391.022 172.8C391.022 178.347 391.889 183.547 393.622 188.4C395.529 193.254 398.129 197.327 401.422 200.62C404.716 203.914 408.616 206.514 413.122 208.42C417.802 210.327 422.916 211.28 428.462 211.28Z" fill="black"/>
<path d="M656.045 243H610.025L565.045 175.92V243H527.085V51.9004H565.045V165L607.165 102.6H651.105L603.525 169.42L656.045 243Z" fill="black"/>
<path d="M824.842 99.2202C839.402 99.2202 851.276 104.42 860.462 114.82C869.822 125.22 874.502 138.567 874.502 154.86V243H836.542V161.1C836.542 142.034 829.436 132.5 815.222 132.5C809.676 132.5 804.822 133.887 800.662 136.66C796.676 139.26 793.642 143.16 791.562 148.36C789.482 153.56 788.442 159.8 788.442 167.08V243H751.262V161.1C751.262 142.034 744.416 132.5 730.722 132.5C722.056 132.5 715.296 135.534 710.442 141.6C705.589 147.667 703.162 156.16 703.162 167.08V243H665.202V102.6H691.722L698.742 120.02C703.942 113.607 710.182 108.58 717.462 104.94C724.916 101.127 732.716 99.2202 740.862 99.2202C749.702 99.2202 757.676 101.214 764.782 105.2C771.889 109.187 777.436 114.734 781.422 121.84C783.156 119.414 784.976 117.247 786.882 115.34C788.789 113.26 790.869 111.44 793.122 109.88C795.376 108.147 797.716 106.674 800.142 105.46C802.569 104.074 805.082 102.947 807.682 102.08C810.456 101.214 813.229 100.52 816.002 99.9998C818.949 99.4802 821.896 99.2202 824.842 99.2202Z" fill="black"/>
<path d="M1016.07 102.34H1044.41V242.74H1014.51L1011.39 230.26C998.56 241.354 983.393 246.9 965.886 246.9C944.74 246.9 927.146 239.88 913.106 225.84C899.24 211.627 892.306 193.86 892.306 172.54C892.306 151.394 899.24 133.8 913.106 119.76C927.146 105.72 944.74 98.7002 965.886 98.7002C983.74 98.7002 999.08 104.42 1011.91 115.86L1016.07 102.34ZM941.446 200.1C948.726 207.38 957.826 211.02 968.746 211.02C979.84 211.02 989.026 207.38 996.306 200.1C1003.59 192.82 1007.23 183.634 1007.23 172.54C1007.23 161.447 1003.59 152.26 996.306 144.98C989.026 137.7 979.926 134.06 969.006 134.06C961.726 134.06 955.14 135.794 949.246 139.26C943.526 142.554 939.02 147.147 935.726 153.04C932.433 158.76 930.786 165.26 930.786 172.54C930.786 183.634 934.34 192.82 941.446 200.1Z" fill="black"/>
<path d="M1144.88 101.82H1157.36V137.7H1140.98C1130.23 137.7 1122.52 140.214 1117.84 145.24C1113.33 150.267 1111.08 158.5 1111.08 169.94V243H1073.12V102.6H1097.56L1104.32 119.76C1113.85 107.8 1127.37 101.82 1144.88 101.82Z" fill="black"/>
<path d="M1303.54 243H1257.52L1212.54 175.92V243H1174.58V51.9004H1212.54V165L1254.66 102.6H1298.6L1251.02 169.42L1303.54 243Z" fill="black"/>
<path d="M1359.82 246.9C1348.21 246.9 1337.89 244.82 1328.88 240.66C1320.04 236.5 1313.11 230.607 1308.08 222.98C1303.23 215.354 1300.8 206.6 1300.8 196.72H1337.72C1337.89 200.88 1338.93 204.434 1340.84 207.38C1342.92 210.154 1345.69 212.234 1349.16 213.62C1352.63 214.834 1356.61 215.44 1361.12 215.44C1364.76 215.44 1368.05 214.92 1371 213.88C1373.95 212.84 1376.37 211.28 1378.28 209.2C1380.19 206.947 1381.14 204.347 1381.14 201.4C1381.14 197.067 1378.89 193.86 1374.38 191.78C1369.87 189.7 1363.11 187.88 1354.1 186.32C1348.38 185.454 1343.61 184.587 1339.8 183.72C1336.16 182.854 1331.74 181.38 1326.54 179.3C1321.51 177.047 1317.44 174.534 1314.32 171.76C1311.37 168.987 1308.77 165.174 1306.52 160.32C1304.27 155.467 1303.14 149.834 1303.14 143.42C1303.14 130.247 1308.34 119.5 1318.74 111.18C1329.14 102.86 1342.75 98.7002 1359.56 98.7002C1376.55 98.7002 1390.15 103.034 1400.38 111.7C1410.78 120.194 1415.98 131.46 1415.98 145.5H1379.84C1379.84 134.407 1372.82 128.86 1358.78 128.86C1352.89 128.86 1348.29 130.074 1345 132.5C1341.71 134.927 1340.06 138.22 1340.06 142.38C1340.06 144.114 1340.49 145.76 1341.36 147.32C1342.4 148.707 1343.53 149.834 1344.74 150.7C1346.13 151.567 1348.21 152.434 1350.98 153.3C1353.75 153.994 1356.09 154.514 1358 154.86C1359.91 155.207 1362.77 155.727 1366.58 156.42C1369.87 157.114 1372.21 157.634 1373.6 157.98C1374.99 158.154 1377.33 158.587 1380.62 159.28C1383.91 159.974 1386.34 160.667 1387.9 161.36C1389.63 161.88 1391.89 162.66 1394.66 163.7C1397.61 164.74 1399.77 165.867 1401.16 167.08C1402.72 168.12 1404.54 169.42 1406.62 170.98C1408.87 172.54 1410.61 174.274 1411.82 176.18C1413.03 178.087 1414.25 180.167 1415.46 182.42C1416.67 184.674 1417.45 187.274 1417.8 190.22C1418.32 193.167 1418.58 196.287 1418.58 199.58C1418.58 213.967 1413.21 225.494 1402.46 234.16C1391.71 242.654 1377.5 246.9 1359.82 246.9Z" fill="black"/>
</mask>
<g mask="url(#mask5_146_20981)">
<path d="M428.462 246.9C414.076 246.9 401.076 243.694 389.462 237.28C377.849 230.867 368.749 222.027 362.162 210.76C355.749 199.32 352.542 186.667 352.542 172.8C352.542 151.48 359.736 133.8 374.122 119.76C388.509 105.72 406.622 98.7002 428.462 98.7002C450.129 98.7002 468.156 105.72 482.542 119.76C496.929 133.8 504.122 151.48 504.122 172.8C504.122 193.947 496.842 211.627 482.282 225.84C467.896 239.88 449.956 246.9 428.462 246.9ZM428.462 211.28C439.382 211.28 448.309 207.727 455.242 200.62C462.176 193.34 465.642 184.067 465.642 172.8C465.642 161.534 462.176 152.347 455.242 145.24C448.309 137.96 439.296 134.32 428.202 134.32C417.282 134.32 408.356 137.96 401.422 145.24C394.489 152.347 391.022 161.534 391.022 172.8C391.022 178.347 391.889 183.547 393.622 188.4C395.529 193.254 398.129 197.327 401.422 200.62C404.716 203.914 408.616 206.514 413.122 208.42C417.802 210.327 422.916 211.28 428.462 211.28Z" stroke="white" stroke-opacity="0.3" stroke-width="2"/>
</g>
<mask id="mask6_146_20981" style="mask-type:luminance" maskUnits="userSpaceOnUse" x="28" y="50" width="1392" height="198">
<path d="M1419.9 50.9004H28.8984V247.9H1419.9V50.9004Z" fill="white"/>
<path d="M106.338 98.7004C127.658 98.7004 145.252 105.72 159.118 119.76C173.158 133.8 180.178 151.48 180.178 172.8C180.178 194.12 173.158 211.8 159.118 225.84C145.252 239.88 127.658 246.9 106.338 246.9C89.5251 246.9 74.8784 241.7 62.3984 231.3L57.9784 243H29.8984V51.9004H67.8584V110.14C79.1251 102.514 91.9518 98.7004 106.338 98.7004ZM75.9184 200.1C83.1984 207.38 92.2984 211.02 103.218 211.02C114.312 211.02 123.412 207.38 130.518 200.1C137.798 192.82 141.438 183.72 141.438 172.8C141.438 165.52 139.792 158.934 136.498 153.04C133.378 147.147 128.872 142.554 122.978 139.26C117.085 135.967 110.498 134.32 103.218 134.32C96.1118 134.32 89.6118 135.967 83.7184 139.26C77.8251 142.554 73.2318 147.147 69.9384 153.04C66.6451 158.934 64.9984 165.52 64.9984 172.8C64.9984 183.72 68.6384 192.82 75.9184 200.1Z" fill="black"/>
<path d="M266.399 246.9C252.012 246.9 239.012 243.694 227.399 237.28C215.786 230.867 206.686 222.027 200.099 210.76C193.686 199.32 190.479 186.667 190.479 172.8C190.479 151.48 197.672 133.8 212.059 119.76C226.446 105.72 244.559 98.7002 266.399 98.7002C288.066 98.7002 306.092 105.72 320.479 119.76C334.866 133.8 342.059 151.48 342.059 172.8C342.059 193.947 334.779 211.627 320.219 225.84C305.832 239.88 287.892 246.9 266.399 246.9ZM266.399 211.28C277.319 211.28 286.246 207.727 293.179 200.62C300.112 193.34 303.579 184.067 303.579 172.8C303.579 161.534 300.112 152.347 293.179 145.24C286.246 137.96 277.232 134.32 266.139 134.32C255.219 134.32 246.292 137.96 239.359 145.24C232.426 152.347 228.959 161.534 228.959 172.8C228.959 178.347 229.826 183.547 231.559 188.4C233.466 193.254 236.066 197.327 239.359 200.62C242.652 203.914 246.552 206.514 251.059 208.42C255.739 210.327 260.852 211.28 266.399 211.28Z" fill="black"/>
<path d="M428.462 246.9C414.076 246.9 401.076 243.694 389.462 237.28C377.849 230.867 368.749 222.027 362.162 210.76C355.749 199.32 352.542 186.667 352.542 172.8C352.542 151.48 359.736 133.8 374.122 119.76C388.509 105.72 406.622 98.7002 428.462 98.7002C450.129 98.7002 468.156 105.72 482.542 119.76C496.929 133.8 504.122 151.48 504.122 172.8C504.122 193.947 496.842 211.627 482.282 225.84C467.896 239.88 449.956 246.9 428.462 246.9ZM428.462 211.28C439.382 211.28 448.309 207.727 455.242 200.62C462.176 193.34 465.642 184.067 465.642 172.8C465.642 161.534 462.176 152.347 455.242 145.24C448.309 137.96 439.296 134.32 428.202 134.32C417.282 134.32 408.356 137.96 401.422 145.24C394.489 152.347 391.022 161.534 391.022 172.8C391.022 178.347 391.889 183.547 393.622 188.4C395.529 193.254 398.129 197.327 401.422 200.62C404.716 203.914 408.616 206.514 413.122 208.42C417.802 210.327 422.916 211.28 428.462 211.28Z" fill="black"/>
<path d="M656.045 243H610.025L565.045 175.92V243H527.085V51.9004H565.045V165L607.165 102.6H651.105L603.525 169.42L656.045 243Z" fill="black"/>
<path d="M824.842 99.2202C839.402 99.2202 851.276 104.42 860.462 114.82C869.822 125.22 874.502 138.567 874.502 154.86V243H836.542V161.1C836.542 142.034 829.436 132.5 815.222 132.5C809.676 132.5 804.822 133.887 800.662 136.66C796.676 139.26 793.642 143.16 791.562 148.36C789.482 153.56 788.442 159.8 788.442 167.08V243H751.262V161.1C751.262 142.034 744.416 132.5 730.722 132.5C722.056 132.5 715.296 135.534 710.442 141.6C705.589 147.667 703.162 156.16 703.162 167.08V243H665.202V102.6H691.722L698.742 120.02C703.942 113.607 710.182 108.58 717.462 104.94C724.916 101.127 732.716 99.2202 740.862 99.2202C749.702 99.2202 757.676 101.214 764.782 105.2C771.889 109.187 777.436 114.734 781.422 121.84C783.156 119.414 784.976 117.247 786.882 115.34C788.789 113.26 790.869 111.44 793.122 109.88C795.376 108.147 797.716 106.674 800.142 105.46C802.569 104.074 805.082 102.947 807.682 102.08C810.456 101.214 813.229 100.52 816.002 99.9998C818.949 99.4802 821.896 99.2202 824.842 99.2202Z" fill="black"/>
<path d="M1016.07 102.34H1044.41V242.74H1014.51L1011.39 230.26C998.56 241.354 983.393 246.9 965.886 246.9C944.74 246.9 927.146 239.88 913.106 225.84C899.24 211.627 892.306 193.86 892.306 172.54C892.306 151.394 899.24 133.8 913.106 119.76C927.146 105.72 944.74 98.7002 965.886 98.7002C983.74 98.7002 999.08 104.42 1011.91 115.86L1016.07 102.34ZM941.446 200.1C948.726 207.38 957.826 211.02 968.746 211.02C979.84 211.02 989.026 207.38 996.306 200.1C1003.59 192.82 1007.23 183.634 1007.23 172.54C1007.23 161.447 1003.59 152.26 996.306 144.98C989.026 137.7 979.926 134.06 969.006 134.06C961.726 134.06 955.14 135.794 949.246 139.26C943.526 142.554 939.02 147.147 935.726 153.04C932.433 158.76 930.786 165.26 930.786 172.54C930.786 183.634 934.34 192.82 941.446 200.1Z" fill="black"/>
<path d="M1144.88 101.82H1157.36V137.7H1140.98C1130.23 137.7 1122.52 140.214 1117.84 145.24C1113.33 150.267 1111.08 158.5 1111.08 169.94V243H1073.12V102.6H1097.56L1104.32 119.76C1113.85 107.8 1127.37 101.82 1144.88 101.82Z" fill="black"/>
<path d="M1303.54 243H1257.52L1212.54 175.92V243H1174.58V51.9004H1212.54V165L1254.66 102.6H1298.6L1251.02 169.42L1303.54 243Z" fill="black"/>
<path d="M1359.82 246.9C1348.21 246.9 1337.89 244.82 1328.88 240.66C1320.04 236.5 1313.11 230.607 1308.08 222.98C1303.23 215.354 1300.8 206.6 1300.8 196.72H1337.72C1337.89 200.88 1338.93 204.434 1340.84 207.38C1342.92 210.154 1345.69 212.234 1349.16 213.62C1352.63 214.834 1356.61 215.44 1361.12 215.44C1364.76 215.44 1368.05 214.92 1371 213.88C1373.95 212.84 1376.37 211.28 1378.28 209.2C1380.19 206.947 1381.14 204.347 1381.14 201.4C1381.14 197.067 1378.89 193.86 1374.38 191.78C1369.87 189.7 1363.11 187.88 1354.1 186.32C1348.38 185.454 1343.61 184.587 1339.8 183.72C1336.16 182.854 1331.74 181.38 1326.54 179.3C1321.51 177.047 1317.44 174.534 1314.32 171.76C1311.37 168.987 1308.77 165.174 1306.52 160.32C1304.27 155.467 1303.14 149.834 1303.14 143.42C1303.14 130.247 1308.34 119.5 1318.74 111.18C1329.14 102.86 1342.75 98.7002 1359.56 98.7002C1376.55 98.7002 1390.15 103.034 1400.38 111.7C1410.78 120.194 1415.98 131.46 1415.98 145.5H1379.84C1379.84 134.407 1372.82 128.86 1358.78 128.86C1352.89 128.86 1348.29 130.074 1345 132.5C1341.71 134.927 1340.06 138.22 1340.06 142.38C1340.06 144.114 1340.49 145.76 1341.36 147.32C1342.4 148.707 1343.53 149.834 1344.74 150.7C1346.13 151.567 1348.21 152.434 1350.98 153.3C1353.75 153.994 1356.09 154.514 1358 154.86C1359.91 155.207 1362.77 155.727 1366.58 156.42C1369.87 157.114 1372.21 157.634 1373.6 157.98C1374.99 158.154 1377.33 158.587 1380.62 159.28C1383.91 159.974 1386.34 160.667 1387.9 161.36C1389.63 161.88 1391.89 162.66 1394.66 163.7C1397.61 164.74 1399.77 165.867 1401.16 167.08C1402.72 168.12 1404.54 169.42 1406.62 170.98C1408.87 172.54 1410.61 174.274 1411.82 176.18C1413.03 178.087 1414.25 180.167 1415.46 182.42C1416.67 184.674 1417.45 187.274 1417.8 190.22C1418.32 193.167 1418.58 196.287 1418.58 199.58C1418.58 213.967 1413.21 225.494 1402.46 234.16C1391.71 242.654 1377.5 246.9 1359.82 246.9Z" fill="black"/>
</mask>
<g mask="url(#mask6_146_20981)">
<path d="M656.045 243H610.025L565.045 175.92V243H527.085V51.9004H565.045V165L607.165 102.6H651.105L603.525 169.42L656.045 243Z" stroke="white" stroke-opacity="0.3" stroke-width="2"/>
</g>
<mask id="mask7_146_20981" style="mask-type:luminance" maskUnits="userSpaceOnUse" x="28" y="50" width="1392" height="198">
<path d="M1419.9 50.9004H28.8984V247.9H1419.9V50.9004Z" fill="white"/>
<path d="M106.338 98.7004C127.658 98.7004 145.252 105.72 159.118 119.76C173.158 133.8 180.178 151.48 180.178 172.8C180.178 194.12 173.158 211.8 159.118 225.84C145.252 239.88 127.658 246.9 106.338 246.9C89.5251 246.9 74.8784 241.7 62.3984 231.3L57.9784 243H29.8984V51.9004H67.8584V110.14C79.1251 102.514 91.9518 98.7004 106.338 98.7004ZM75.9184 200.1C83.1984 207.38 92.2984 211.02 103.218 211.02C114.312 211.02 123.412 207.38 130.518 200.1C137.798 192.82 141.438 183.72 141.438 172.8C141.438 165.52 139.792 158.934 136.498 153.04C133.378 147.147 128.872 142.554 122.978 139.26C117.085 135.967 110.498 134.32 103.218 134.32C96.1118 134.32 89.6118 135.967 83.7184 139.26C77.8251 142.554 73.2318 147.147 69.9384 153.04C66.6451 158.934 64.9984 165.52 64.9984 172.8C64.9984 183.72 68.6384 192.82 75.9184 200.1Z" fill="black"/>
<path d="M266.399 246.9C252.012 246.9 239.012 243.694 227.399 237.28C215.786 230.867 206.686 222.027 200.099 210.76C193.686 199.32 190.479 186.667 190.479 172.8C190.479 151.48 197.672 133.8 212.059 119.76C226.446 105.72 244.559 98.7002 266.399 98.7002C288.066 98.7002 306.092 105.72 320.479 119.76C334.866 133.8 342.059 151.48 342.059 172.8C342.059 193.947 334.779 211.627 320.219 225.84C305.832 239.88 287.892 246.9 266.399 246.9ZM266.399 211.28C277.319 211.28 286.246 207.727 293.179 200.62C300.112 193.34 303.579 184.067 303.579 172.8C303.579 161.534 300.112 152.347 293.179 145.24C286.246 137.96 277.232 134.32 266.139 134.32C255.219 134.32 246.292 137.96 239.359 145.24C232.426 152.347 228.959 161.534 228.959 172.8C228.959 178.347 229.826 183.547 231.559 188.4C233.466 193.254 236.066 197.327 239.359 200.62C242.652 203.914 246.552 206.514 251.059 208.42C255.739 210.327 260.852 211.28 266.399 211.28Z" fill="black"/>
<path d="M428.462 246.9C414.076 246.9 401.076 243.694 389.462 237.28C377.849 230.867 368.749 222.027 362.162 210.76C355.749 199.32 352.542 186.667 352.542 172.8C352.542 151.48 359.736 133.8 374.122 119.76C388.509 105.72 406.622 98.7002 428.462 98.7002C450.129 98.7002 468.156 105.72 482.542 119.76C496.929 133.8 504.122 151.48 504.122 172.8C504.122 193.947 496.842 211.627 482.282 225.84C467.896 239.88 449.956 246.9 428.462 246.9ZM428.462 211.28C439.382 211.28 448.309 207.727 455.242 200.62C462.176 193.34 465.642 184.067 465.642 172.8C465.642 161.534 462.176 152.347 455.242 145.24C448.309 137.96 439.296 134.32 428.202 134.32C417.282 134.32 408.356 137.96 401.422 145.24C394.489 152.347 391.022 161.534 391.022 172.8C391.022 178.347 391.889 183.547 393.622 188.4C395.529 193.254 398.129 197.327 401.422 200.62C404.716 203.914 408.616 206.514 413.122 208.42C417.802 210.327 422.916 211.28 428.462 211.28Z" fill="black"/>
<path d="M656.045 243H610.025L565.045 175.92V243H527.085V51.9004H565.045V165L607.165 102.6H651.105L603.525 169.42L656.045 243Z" fill="black"/>
<path d="M824.842 99.2202C839.402 99.2202 851.276 104.42 860.462 114.82C869.822 125.22 874.502 138.567 874.502 154.86V243H836.542V161.1C836.542 142.034 829.436 132.5 815.222 132.5C809.676 132.5 804.822 133.887 800.662 136.66C796.676 139.26 793.642 143.16 791.562 148.36C789.482 153.56 788.442 159.8 788.442 167.08V243H751.262V161.1C751.262 142.034 744.416 132.5 730.722 132.5C722.056 132.5 715.296 135.534 710.442 141.6C705.589 147.667 703.162 156.16 703.162 167.08V243H665.202V102.6H691.722L698.742 120.02C703.942 113.607 710.182 108.58 717.462 104.94C724.916 101.127 732.716 99.2202 740.862 99.2202C749.702 99.2202 757.676 101.214 764.782 105.2C771.889 109.187 777.436 114.734 781.422 121.84C783.156 119.414 784.976 117.247 786.882 115.34C788.789 113.26 790.869 111.44 793.122 109.88C795.376 108.147 797.716 106.674 800.142 105.46C802.569 104.074 805.082 102.947 807.682 102.08C810.456 101.214 813.229 100.52 816.002 99.9998C818.949 99.4802 821.896 99.2202 824.842 99.2202Z" fill="black"/>
<path d="M1016.07 102.34H1044.41V242.74H1014.51L1011.39 230.26C998.56 241.354 983.393 246.9 965.886 246.9C944.74 246.9 927.146 239.88 913.106 225.84C899.24 211.627 892.306 193.86 892.306 172.54C892.306 151.394 899.24 133.8 913.106 119.76C927.146 105.72 944.74 98.7002 965.886 98.7002C983.74 98.7002 999.08 104.42 1011.91 115.86L1016.07 102.34ZM941.446 200.1C948.726 207.38 957.826 211.02 968.746 211.02C979.84 211.02 989.026 207.38 996.306 200.1C1003.59 192.82 1007.23 183.634 1007.23 172.54C1007.23 161.447 1003.59 152.26 996.306 144.98C989.026 137.7 979.926 134.06 969.006 134.06C961.726 134.06 955.14 135.794 949.246 139.26C943.526 142.554 939.02 147.147 935.726 153.04C932.433 158.76 930.786 165.26 930.786 172.54C930.786 183.634 934.34 192.82 941.446 200.1Z" fill="black"/>
<path d="M1144.88 101.82H1157.36V137.7H1140.98C1130.23 137.7 1122.52 140.214 1117.84 145.24C1113.33 150.267 1111.08 158.5 1111.08 169.94V243H1073.12V102.6H1097.56L1104.32 119.76C1113.85 107.8 1127.37 101.82 1144.88 101.82Z" fill="black"/>
<path d="M1303.54 243H1257.52L1212.54 175.92V243H1174.58V51.9004H1212.54V165L1254.66 102.6H1298.6L1251.02 169.42L1303.54 243Z" fill="black"/>
<path d="M1359.82 246.9C1348.21 246.9 1337.89 244.82 1328.88 240.66C1320.04 236.5 1313.11 230.607 1308.08 222.98C1303.23 215.354 1300.8 206.6 1300.8 196.72H1337.72C1337.89 200.88 1338.93 204.434 1340.84 207.38C1342.92 210.154 1345.69 212.234 1349.16 213.62C1352.63 214.834 1356.61 215.44 1361.12 215.44C1364.76 215.44 1368.05 214.92 1371 213.88C1373.95 212.84 1376.37 211.28 1378.28 209.2C1380.19 206.947 1381.14 204.347 1381.14 201.4C1381.14 197.067 1378.89 193.86 1374.38 191.78C1369.87 189.7 1363.11 187.88 1354.1 186.32C1348.38 185.454 1343.61 184.587 1339.8 183.72C1336.16 182.854 1331.74 181.38 1326.54 179.3C1321.51 177.047 1317.44 174.534 1314.32 171.76C1311.37 168.987 1308.77 165.174 1306.52 160.32C1304.27 155.467 1303.14 149.834 1303.14 143.42C1303.14 130.247 1308.34 119.5 1318.74 111.18C1329.14 102.86 1342.75 98.7002 1359.56 98.7002C1376.55 98.7002 1390.15 103.034 1400.38 111.7C1410.78 120.194 1415.98 131.46 1415.98 145.5H1379.84C1379.84 134.407 1372.82 128.86 1358.78 128.86C1352.89 128.86 1348.29 130.074 1345 132.5C1341.71 134.927 1340.06 138.22 1340.06 142.38C1340.06 144.114 1340.49 145.76 1341.36 147.32C1342.4 148.707 1343.53 149.834 1344.74 150.7C1346.13 151.567 1348.21 152.434 1350.98 153.3C1353.75 153.994 1356.09 154.514 1358 154.86C1359.91 155.207 1362.77 155.727 1366.58 156.42C1369.87 157.114 1372.21 157.634 1373.6 157.98C1374.99 158.154 1377.33 158.587 1380.62 159.28C1383.91 159.974 1386.34 160.667 1387.9 161.36C1389.63 161.88 1391.89 162.66 1394.66 163.7C1397.61 164.74 1399.77 165.867 1401.16 167.08C1402.72 168.12 1404.54 169.42 1406.62 170.98C1408.87 172.54 1410.61 174.274 1411.82 176.18C1413.03 178.087 1414.25 180.167 1415.46 182.42C1416.67 184.674 1417.45 187.274 1417.8 190.22C1418.32 193.167 1418.58 196.287 1418.58 199.58C1418.58 213.967 1413.21 225.494 1402.46 234.16C1391.71 242.654 1377.5 246.9 1359.82 246.9Z" fill="black"/>
</mask>
<g mask="url(#mask7_146_20981)">
<path d="M824.842 99.2202C839.402 99.2202 851.276 104.42 860.462 114.82C869.822 125.22 874.502 138.567 874.502 154.86V243H836.542V161.1C836.542 142.034 829.436 132.5 815.222 132.5C809.676 132.5 804.822 133.887 800.662 136.66C796.676 139.26 793.642 143.16 791.562 148.36C789.482 153.56 788.442 159.8 788.442 167.08V243H751.262V161.1C751.262 142.034 744.416 132.5 730.722 132.5C722.056 132.5 715.296 135.534 710.442 141.6C705.589 147.667 703.162 156.16 703.162 167.08V243H665.202V102.6H691.722L698.742 120.02C703.942 113.607 710.182 108.58 717.462 104.94C724.916 101.127 732.716 99.2202 740.862 99.2202C749.702 99.2202 757.676 101.214 764.782 105.2C771.889 109.187 777.436 114.734 781.422 121.84C783.156 119.414 784.976 117.247 786.882 115.34C788.789 113.26 790.869 111.44 793.122 109.88C795.376 108.147 797.716 106.674 800.142 105.46C802.569 104.074 805.082 102.947 807.682 102.08C810.456 101.214 813.229 100.52 816.002 99.9998C818.949 99.4802 821.896 99.2202 824.842 99.2202Z" stroke="white" stroke-opacity="0.3" stroke-width="2"/>
</g>
<mask id="mask8_146_20981" style="mask-type:luminance" maskUnits="userSpaceOnUse" x="28" y="50" width="1392" height="198">
<path d="M1419.9 50.9004H28.8984V247.9H1419.9V50.9004Z" fill="white"/>
<path d="M106.338 98.7004C127.658 98.7004 145.252 105.72 159.118 119.76C173.158 133.8 180.178 151.48 180.178 172.8C180.178 194.12 173.158 211.8 159.118 225.84C145.252 239.88 127.658 246.9 106.338 246.9C89.5251 246.9 74.8784 241.7 62.3984 231.3L57.9784 243H29.8984V51.9004H67.8584V110.14C79.1251 102.514 91.9518 98.7004 106.338 98.7004ZM75.9184 200.1C83.1984 207.38 92.2984 211.02 103.218 211.02C114.312 211.02 123.412 207.38 130.518 200.1C137.798 192.82 141.438 183.72 141.438 172.8C141.438 165.52 139.792 158.934 136.498 153.04C133.378 147.147 128.872 142.554 122.978 139.26C117.085 135.967 110.498 134.32 103.218 134.32C96.1118 134.32 89.6118 135.967 83.7184 139.26C77.8251 142.554 73.2318 147.147 69.9384 153.04C66.6451 158.934 64.9984 165.52 64.9984 172.8C64.9984 183.72 68.6384 192.82 75.9184 200.1Z" fill="black"/>
<path d="M266.399 246.9C252.012 246.9 239.012 243.694 227.399 237.28C215.786 230.867 206.686 222.027 200.099 210.76C193.686 199.32 190.479 186.667 190.479 172.8C190.479 151.48 197.672 133.8 212.059 119.76C226.446 105.72 244.559 98.7002 266.399 98.7002C288.066 98.7002 306.092 105.72 320.479 119.76C334.866 133.8 342.059 151.48 342.059 172.8C342.059 193.947 334.779 211.627 320.219 225.84C305.832 239.88 287.892 246.9 266.399 246.9ZM266.399 211.28C277.319 211.28 286.246 207.727 293.179 200.62C300.112 193.34 303.579 184.067 303.579 172.8C303.579 161.534 300.112 152.347 293.179 145.24C286.246 137.96 277.232 134.32 266.139 134.32C255.219 134.32 246.292 137.96 239.359 145.24C232.426 152.347 228.959 161.534 228.959 172.8C228.959 178.347 229.826 183.547 231.559 188.4C233.466 193.254 236.066 197.327 239.359 200.62C242.652 203.914 246.552 206.514 251.059 208.42C255.739 210.327 260.852 211.28 266.399 211.28Z" fill="black"/>
<path d="M428.462 246.9C414.076 246.9 401.076 243.694 389.462 237.28C377.849 230.867 368.749 222.027 362.162 210.76C355.749 199.32 352.542 186.667 352.542 172.8C352.542 151.48 359.736 133.8 374.122 119.76C388.509 105.72 406.622 98.7002 428.462 98.7002C450.129 98.7002 468.156 105.72 482.542 119.76C496.929 133.8 504.122 151.48 504.122 172.8C504.122 193.947 496.842 211.627 482.282 225.84C467.896 239.88 449.956 246.9 428.462 246.9ZM428.462 211.28C439.382 211.28 448.309 207.727 455.242 200.62C462.176 193.34 465.642 184.067 465.642 172.8C465.642 161.534 462.176 152.347 455.242 145.24C448.309 137.96 439.296 134.32 428.202 134.32C417.282 134.32 408.356 137.96 401.422 145.24C394.489 152.347 391.022 161.534 391.022 172.8C391.022 178.347 391.889 183.547 393.622 188.4C395.529 193.254 398.129 197.327 401.422 200.62C404.716 203.914 408.616 206.514 413.122 208.42C417.802 210.327 422.916 211.28 428.462 211.28Z" fill="black"/>
<path d="M656.045 243H610.025L565.045 175.92V243H527.085V51.9004H565.045V165L607.165 102.6H651.105L603.525 169.42L656.045 243Z" fill="black"/>
<path d="M824.842 99.2202C839.402 99.2202 851.276 104.42 860.462 114.82C869.822 125.22 874.502 138.567 874.502 154.86V243H836.542V161.1C836.542 142.034 829.436 132.5 815.222 132.5C809.676 132.5 804.822 133.887 800.662 136.66C796.676 139.26 793.642 143.16 791.562 148.36C789.482 153.56 788.442 159.8 788.442 167.08V243H751.262V161.1C751.262 142.034 744.416 132.5 730.722 132.5C722.056 132.5 715.296 135.534 710.442 141.6C705.589 147.667 703.162 156.16 703.162 167.08V243H665.202V102.6H691.722L698.742 120.02C703.942 113.607 710.182 108.58 717.462 104.94C724.916 101.127 732.716 99.2202 740.862 99.2202C749.702 99.2202 757.676 101.214 764.782 105.2C771.889 109.187 777.436 114.734 781.422 121.84C783.156 119.414 784.976 117.247 786.882 115.34C788.789 113.26 790.869 111.44 793.122 109.88C795.376 108.147 797.716 106.674 800.142 105.46C802.569 104.074 805.082 102.947 807.682 102.08C810.456 101.214 813.229 100.52 816.002 99.9998C818.949 99.4802 821.896 99.2202 824.842 99.2202Z" fill="black"/>
<path d="M1016.07 102.34H1044.41V242.74H1014.51L1011.39 230.26C998.56 241.354 983.393 246.9 965.886 246.9C944.74 246.9 927.146 239.88 913.106 225.84C899.24 211.627 892.306 193.86 892.306 172.54C892.306 151.394 899.24 133.8 913.106 119.76C927.146 105.72 944.74 98.7002 965.886 98.7002C983.74 98.7002 999.08 104.42 1011.91 115.86L1016.07 102.34ZM941.446 200.1C948.726 207.38 957.826 211.02 968.746 211.02C979.84 211.02 989.026 207.38 996.306 200.1C1003.59 192.82 1007.23 183.634 1007.23 172.54C1007.23 161.447 1003.59 152.26 996.306 144.98C989.026 137.7 979.926 134.06 969.006 134.06C961.726 134.06 955.14 135.794 949.246 139.26C943.526 142.554 939.02 147.147 935.726 153.04C932.433 158.76 930.786 165.26 930.786 172.54C930.786 183.634 934.34 192.82 941.446 200.1Z" fill="black"/>
<path d="M1144.88 101.82H1157.36V137.7H1140.98C1130.23 137.7 1122.52 140.214 1117.84 145.24C1113.33 150.267 1111.08 158.5 1111.08 169.94V243H1073.12V102.6H1097.56L1104.32 119.76C1113.85 107.8 1127.37 101.82 1144.88 101.82Z" fill="black"/>
<path d="M1303.54 243H1257.52L1212.54 175.92V243H1174.58V51.9004H1212.54V165L1254.66 102.6H1298.6L1251.02 169.42L1303.54 243Z" fill="black"/>
<path d="M1359.82 246.9C1348.21 246.9 1337.89 244.82 1328.88 240.66C1320.04 236.5 1313.11 230.607 1308.08 222.98C1303.23 215.354 1300.8 206.6 1300.8 196.72H1337.72C1337.89 200.88 1338.93 204.434 1340.84 207.38C1342.92 210.154 1345.69 212.234 1349.16 213.62C1352.63 214.834 1356.61 215.44 1361.12 215.44C1364.76 215.44 1368.05 214.92 1371 213.88C1373.95 212.84 1376.37 211.28 1378.28 209.2C1380.19 206.947 1381.14 204.347 1381.14 201.4C1381.14 197.067 1378.89 193.86 1374.38 191.78C1369.87 189.7 1363.11 187.88 1354.1 186.32C1348.38 185.454 1343.61 184.587 1339.8 183.72C1336.16 182.854 1331.74 181.38 1326.54 179.3C1321.51 177.047 1317.44 174.534 1314.32 171.76C1311.37 168.987 1308.77 165.174 1306.52 160.32C1304.27 155.467 1303.14 149.834 1303.14 143.42C1303.14 130.247 1308.34 119.5 1318.74 111.18C1329.14 102.86 1342.75 98.7002 1359.56 98.7002C1376.55 98.7002 1390.15 103.034 1400.38 111.7C1410.78 120.194 1415.98 131.46 1415.98 145.5H1379.84C1379.84 134.407 1372.82 128.86 1358.78 128.86C1352.89 128.86 1348.29 130.074 1345 132.5C1341.71 134.927 1340.06 138.22 1340.06 142.38C1340.06 144.114 1340.49 145.76 1341.36 147.32C1342.4 148.707 1343.53 149.834 1344.74 150.7C1346.13 151.567 1348.21 152.434 1350.98 153.3C1353.75 153.994 1356.09 154.514 1358 154.86C1359.91 155.207 1362.77 155.727 1366.58 156.42C1369.87 157.114 1372.21 157.634 1373.6 157.98C1374.99 158.154 1377.33 158.587 1380.62 159.28C1383.91 159.974 1386.34 160.667 1387.9 161.36C1389.63 161.88 1391.89 162.66 1394.66 163.7C1397.61 164.74 1399.77 165.867 1401.16 167.08C1402.72 168.12 1404.54 169.42 1406.62 170.98C1408.87 172.54 1410.61 174.274 1411.82 176.18C1413.03 178.087 1414.25 180.167 1415.46 182.42C1416.67 184.674 1417.45 187.274 1417.8 190.22C1418.32 193.167 1418.58 196.287 1418.58 199.58C1418.58 213.967 1413.21 225.494 1402.46 234.16C1391.71 242.654 1377.5 246.9 1359.82 246.9Z" fill="black"/>
</mask>
<g mask="url(#mask8_146_20981)">
<path d="M1016.07 102.34H1044.41V242.74H1014.51L1011.39 230.26C998.56 241.354 983.393 246.9 965.886 246.9C944.74 246.9 927.146 239.88 913.106 225.84C899.24 211.627 892.306 193.86 892.306 172.54C892.306 151.394 899.24 133.8 913.106 119.76C927.146 105.72 944.74 98.7002 965.886 98.7002C983.74 98.7002 999.08 104.42 1011.91 115.86L1016.07 102.34ZM941.446 200.1C948.726 207.38 957.826 211.02 968.746 211.02C979.84 211.02 989.026 207.38 996.306 200.1C1003.59 192.82 1007.23 183.634 1007.23 172.54C1007.23 161.447 1003.59 152.26 996.306 144.98C989.026 137.7 979.926 134.06 969.006 134.06C961.726 134.06 955.14 135.794 949.246 139.26C943.526 142.554 939.02 147.147 935.726 153.04C932.433 158.76 930.786 165.26 930.786 172.54C930.786 183.634 934.34 192.82 941.446 200.1Z" stroke="white" stroke-opacity="0.3" stroke-width="2"/>
</g>
<mask id="mask9_146_20981" style="mask-type:luminance" maskUnits="userSpaceOnUse" x="28" y="50" width="1392" height="198">
<path d="M1419.9 50.9004H28.8984V247.9H1419.9V50.9004Z" fill="white"/>
<path d="M106.338 98.7004C127.658 98.7004 145.252 105.72 159.118 119.76C173.158 133.8 180.178 151.48 180.178 172.8C180.178 194.12 173.158 211.8 159.118 225.84C145.252 239.88 127.658 246.9 106.338 246.9C89.5251 246.9 74.8784 241.7 62.3984 231.3L57.9784 243H29.8984V51.9004H67.8584V110.14C79.1251 102.514 91.9518 98.7004 106.338 98.7004ZM75.9184 200.1C83.1984 207.38 92.2984 211.02 103.218 211.02C114.312 211.02 123.412 207.38 130.518 200.1C137.798 192.82 141.438 183.72 141.438 172.8C141.438 165.52 139.792 158.934 136.498 153.04C133.378 147.147 128.872 142.554 122.978 139.26C117.085 135.967 110.498 134.32 103.218 134.32C96.1118 134.32 89.6118 135.967 83.7184 139.26C77.8251 142.554 73.2318 147.147 69.9384 153.04C66.6451 158.934 64.9984 165.52 64.9984 172.8C64.9984 183.72 68.6384 192.82 75.9184 200.1Z" fill="black"/>
<path d="M266.399 246.9C252.012 246.9 239.012 243.694 227.399 237.28C215.786 230.867 206.686 222.027 200.099 210.76C193.686 199.32 190.479 186.667 190.479 172.8C190.479 151.48 197.672 133.8 212.059 119.76C226.446 105.72 244.559 98.7002 266.399 98.7002C288.066 98.7002 306.092 105.72 320.479 119.76C334.866 133.8 342.059 151.48 342.059 172.8C342.059 193.947 334.779 211.627 320.219 225.84C305.832 239.88 287.892 246.9 266.399 246.9ZM266.399 211.28C277.319 211.28 286.246 207.727 293.179 200.62C300.112 193.34 303.579 184.067 303.579 172.8C303.579 161.534 300.112 152.347 293.179 145.24C286.246 137.96 277.232 134.32 266.139 134.32C255.219 134.32 246.292 137.96 239.359 145.24C232.426 152.347 228.959 161.534 228.959 172.8C228.959 178.347 229.826 183.547 231.559 188.4C233.466 193.254 236.066 197.327 239.359 200.62C242.652 203.914 246.552 206.514 251.059 208.42C255.739 210.327 260.852 211.28 266.399 211.28Z" fill="black"/>
<path d="M428.462 246.9C414.076 246.9 401.076 243.694 389.462 237.28C377.849 230.867 368.749 222.027 362.162 210.76C355.749 199.32 352.542 186.667 352.542 172.8C352.542 151.48 359.736 133.8 374.122 119.76C388.509 105.72 406.622 98.7002 428.462 98.7002C450.129 98.7002 468.156 105.72 482.542 119.76C496.929 133.8 504.122 151.48 504.122 172.8C504.122 193.947 496.842 211.627 482.282 225.84C467.896 239.88 449.956 246.9 428.462 246.9ZM428.462 211.28C439.382 211.28 448.309 207.727 455.242 200.62C462.176 193.34 465.642 184.067 465.642 172.8C465.642 161.534 462.176 152.347 455.242 145.24C448.309 137.96 439.296 134.32 428.202 134.32C417.282 134.32 408.356 137.96 401.422 145.24C394.489 152.347 391.022 161.534 391.022 172.8C391.022 178.347 391.889 183.547 393.622 188.4C395.529 193.254 398.129 197.327 401.422 200.62C404.716 203.914 408.616 206.514 413.122 208.42C417.802 210.327 422.916 211.28 428.462 211.28Z" fill="black"/>
<path d="M656.045 243H610.025L565.045 175.92V243H527.085V51.9004H565.045V165L607.165 102.6H651.105L603.525 169.42L656.045 243Z" fill="black"/>
<path d="M824.842 99.2202C839.402 99.2202 851.276 104.42 860.462 114.82C869.822 125.22 874.502 138.567 874.502 154.86V243H836.542V161.1C836.542 142.034 829.436 132.5 815.222 132.5C809.676 132.5 804.822 133.887 800.662 136.66C796.676 139.26 793.642 143.16 791.562 148.36C789.482 153.56 788.442 159.8 788.442 167.08V243H751.262V161.1C751.262 142.034 744.416 132.5 730.722 132.5C722.056 132.5 715.296 135.534 710.442 141.6C705.589 147.667 703.162 156.16 703.162 167.08V243H665.202V102.6H691.722L698.742 120.02C703.942 113.607 710.182 108.58 717.462 104.94C724.916 101.127 732.716 99.2202 740.862 99.2202C749.702 99.2202 757.676 101.214 764.782 105.2C771.889 109.187 777.436 114.734 781.422 121.84C783.156 119.414 784.976 117.247 786.882 115.34C788.789 113.26 790.869 111.44 793.122 109.88C795.376 108.147 797.716 106.674 800.142 105.46C802.569 104.074 805.082 102.947 807.682 102.08C810.456 101.214 813.229 100.52 816.002 99.9998C818.949 99.4802 821.896 99.2202 824.842 99.2202Z" fill="black"/>
<path d="M1016.07 102.34H1044.41V242.74H1014.51L1011.39 230.26C998.56 241.354 983.393 246.9 965.886 246.9C944.74 246.9 927.146 239.88 913.106 225.84C899.24 211.627 892.306 193.86 892.306 172.54C892.306 151.394 899.24 133.8 913.106 119.76C927.146 105.72 944.74 98.7002 965.886 98.7002C983.74 98.7002 999.08 104.42 1011.91 115.86L1016.07 102.34ZM941.446 200.1C948.726 207.38 957.826 211.02 968.746 211.02C979.84 211.02 989.026 207.38 996.306 200.1C1003.59 192.82 1007.23 183.634 1007.23 172.54C1007.23 161.447 1003.59 152.26 996.306 144.98C989.026 137.7 979.926 134.06 969.006 134.06C961.726 134.06 955.14 135.794 949.246 139.26C943.526 142.554 939.02 147.147 935.726 153.04C932.433 158.76 930.786 165.26 930.786 172.54C930.786 183.634 934.34 192.82 941.446 200.1Z" fill="black"/>
<path d="M1144.88 101.82H1157.36V137.7H1140.98C1130.23 137.7 1122.52 140.214 1117.84 145.24C1113.33 150.267 1111.08 158.5 1111.08 169.94V243H1073.12V102.6H1097.56L1104.32 119.76C1113.85 107.8 1127.37 101.82 1144.88 101.82Z" fill="black"/>
<path d="M1303.54 243H1257.52L1212.54 175.92V243H1174.58V51.9004H1212.54V165L1254.66 102.6H1298.6L1251.02 169.42L1303.54 243Z" fill="black"/>
<path d="M1359.82 246.9C1348.21 246.9 1337.89 244.82 1328.88 240.66C1320.04 236.5 1313.11 230.607 1308.08 222.98C1303.23 215.354 1300.8 206.6 1300.8 196.72H1337.72C1337.89 200.88 1338.93 204.434 1340.84 207.38C1342.92 210.154 1345.69 212.234 1349.16 213.62C1352.63 214.834 1356.61 215.44 1361.12 215.44C1364.76 215.44 1368.05 214.92 1371 213.88C1373.95 212.84 1376.37 211.28 1378.28 209.2C1380.19 206.947 1381.14 204.347 1381.14 201.4C1381.14 197.067 1378.89 193.86 1374.38 191.78C1369.87 189.7 1363.11 187.88 1354.1 186.32C1348.38 185.454 1343.61 184.587 1339.8 183.72C1336.16 182.854 1331.74 181.38 1326.54 179.3C1321.51 177.047 1317.44 174.534 1314.32 171.76C1311.37 168.987 1308.77 165.174 1306.52 160.32C1304.27 155.467 1303.14 149.834 1303.14 143.42C1303.14 130.247 1308.34 119.5 1318.74 111.18C1329.14 102.86 1342.75 98.7002 1359.56 98.7002C1376.55 98.7002 1390.15 103.034 1400.38 111.7C1410.78 120.194 1415.98 131.46 1415.98 145.5H1379.84C1379.84 134.407 1372.82 128.86 1358.78 128.86C1352.89 128.86 1348.29 130.074 1345 132.5C1341.71 134.927 1340.06 138.22 1340.06 142.38C1340.06 144.114 1340.49 145.76 1341.36 147.32C1342.4 148.707 1343.53 149.834 1344.74 150.7C1346.13 151.567 1348.21 152.434 1350.98 153.3C1353.75 153.994 1356.09 154.514 1358 154.86C1359.91 155.207 1362.77 155.727 1366.58 156.42C1369.87 157.114 1372.21 157.634 1373.6 157.98C1374.99 158.154 1377.33 158.587 1380.62 159.28C1383.91 159.974 1386.34 160.667 1387.9 161.36C1389.63 161.88 1391.89 162.66 1394.66 163.7C1397.61 164.74 1399.77 165.867 1401.16 167.08C1402.72 168.12 1404.54 169.42 1406.62 170.98C1408.87 172.54 1410.61 174.274 1411.82 176.18C1413.03 178.087 1414.25 180.167 1415.46 182.42C1416.67 184.674 1417.45 187.274 1417.8 190.22C1418.32 193.167 1418.58 196.287 1418.58 199.58C1418.58 213.967 1413.21 225.494 1402.46 234.16C1391.71 242.654 1377.5 246.9 1359.82 246.9Z" fill="black"/>
</mask>
<g mask="url(#mask9_146_20981)">
<path d="M1144.88 101.82H1157.36V137.7H1140.98C1130.23 137.7 1122.52 140.214 1117.84 145.24C1113.33 150.267 1111.08 158.5 1111.08 169.94V243H1073.12V102.6H1097.56L1104.32 119.76C1113.85 107.8 1127.37 101.82 1144.88 101.82Z" stroke="white" stroke-opacity="0.3" stroke-width="2"/>
</g>
<mask id="mask10_146_20981" style="mask-type:luminance" maskUnits="userSpaceOnUse" x="28" y="50" width="1392" height="198">
<path d="M1419.9 50.9004H28.8984V247.9H1419.9V50.9004Z" fill="white"/>
<path d="M106.338 98.7004C127.658 98.7004 145.252 105.72 159.118 119.76C173.158 133.8 180.178 151.48 180.178 172.8C180.178 194.12 173.158 211.8 159.118 225.84C145.252 239.88 127.658 246.9 106.338 246.9C89.5251 246.9 74.8784 241.7 62.3984 231.3L57.9784 243H29.8984V51.9004H67.8584V110.14C79.1251 102.514 91.9518 98.7004 106.338 98.7004ZM75.9184 200.1C83.1984 207.38 92.2984 211.02 103.218 211.02C114.312 211.02 123.412 207.38 130.518 200.1C137.798 192.82 141.438 183.72 141.438 172.8C141.438 165.52 139.792 158.934 136.498 153.04C133.378 147.147 128.872 142.554 122.978 139.26C117.085 135.967 110.498 134.32 103.218 134.32C96.1118 134.32 89.6118 135.967 83.7184 139.26C77.8251 142.554 73.2318 147.147 69.9384 153.04C66.6451 158.934 64.9984 165.52 64.9984 172.8C64.9984 183.72 68.6384 192.82 75.9184 200.1Z" fill="black"/>
<path d="M266.399 246.9C252.012 246.9 239.012 243.694 227.399 237.28C215.786 230.867 206.686 222.027 200.099 210.76C193.686 199.32 190.479 186.667 190.479 172.8C190.479 151.48 197.672 133.8 212.059 119.76C226.446 105.72 244.559 98.7002 266.399 98.7002C288.066 98.7002 306.092 105.72 320.479 119.76C334.866 133.8 342.059 151.48 342.059 172.8C342.059 193.947 334.779 211.627 320.219 225.84C305.832 239.88 287.892 246.9 266.399 246.9ZM266.399 211.28C277.319 211.28 286.246 207.727 293.179 200.62C300.112 193.34 303.579 184.067 303.579 172.8C303.579 161.534 300.112 152.347 293.179 145.24C286.246 137.96 277.232 134.32 266.139 134.32C255.219 134.32 246.292 137.96 239.359 145.24C232.426 152.347 228.959 161.534 228.959 172.8C228.959 178.347 229.826 183.547 231.559 188.4C233.466 193.254 236.066 197.327 239.359 200.62C242.652 203.914 246.552 206.514 251.059 208.42C255.739 210.327 260.852 211.28 266.399 211.28Z" fill="black"/>
<path d="M428.462 246.9C414.076 246.9 401.076 243.694 389.462 237.28C377.849 230.867 368.749 222.027 362.162 210.76C355.749 199.32 352.542 186.667 352.542 172.8C352.542 151.48 359.736 133.8 374.122 119.76C388.509 105.72 406.622 98.7002 428.462 98.7002C450.129 98.7002 468.156 105.72 482.542 119.76C496.929 133.8 504.122 151.48 504.122 172.8C504.122 193.947 496.842 211.627 482.282 225.84C467.896 239.88 449.956 246.9 428.462 246.9ZM428.462 211.28C439.382 211.28 448.309 207.727 455.242 200.62C462.176 193.34 465.642 184.067 465.642 172.8C465.642 161.534 462.176 152.347 455.242 145.24C448.309 137.96 439.296 134.32 428.202 134.32C417.282 134.32 408.356 137.96 401.422 145.24C394.489 152.347 391.022 161.534 391.022 172.8C391.022 178.347 391.889 183.547 393.622 188.4C395.529 193.254 398.129 197.327 401.422 200.62C404.716 203.914 408.616 206.514 413.122 208.42C417.802 210.327 422.916 211.28 428.462 211.28Z" fill="black"/>
<path d="M656.045 243H610.025L565.045 175.92V243H527.085V51.9004H565.045V165L607.165 102.6H651.105L603.525 169.42L656.045 243Z" fill="black"/>
<path d="M824.842 99.2202C839.402 99.2202 851.276 104.42 860.462 114.82C869.822 125.22 874.502 138.567 874.502 154.86V243H836.542V161.1C836.542 142.034 829.436 132.5 815.222 132.5C809.676 132.5 804.822 133.887 800.662 136.66C796.676 139.26 793.642 143.16 791.562 148.36C789.482 153.56 788.442 159.8 788.442 167.08V243H751.262V161.1C751.262 142.034 744.416 132.5 730.722 132.5C722.056 132.5 715.296 135.534 710.442 141.6C705.589 147.667 703.162 156.16 703.162 167.08V243H665.202V102.6H691.722L698.742 120.02C703.942 113.607 710.182 108.58 717.462 104.94C724.916 101.127 732.716 99.2202 740.862 99.2202C749.702 99.2202 757.676 101.214 764.782 105.2C771.889 109.187 777.436 114.734 781.422 121.84C783.156 119.414 784.976 117.247 786.882 115.34C788.789 113.26 790.869 111.44 793.122 109.88C795.376 108.147 797.716 106.674 800.142 105.46C802.569 104.074 805.082 102.947 807.682 102.08C810.456 101.214 813.229 100.52 816.002 99.9998C818.949 99.4802 821.896 99.2202 824.842 99.2202Z" fill="black"/>
<path d="M1016.07 102.34H1044.41V242.74H1014.51L1011.39 230.26C998.56 241.354 983.393 246.9 965.886 246.9C944.74 246.9 927.146 239.88 913.106 225.84C899.24 211.627 892.306 193.86 892.306 172.54C892.306 151.394 899.24 133.8 913.106 119.76C927.146 105.72 944.74 98.7002 965.886 98.7002C983.74 98.7002 999.08 104.42 1011.91 115.86L1016.07 102.34ZM941.446 200.1C948.726 207.38 957.826 211.02 968.746 211.02C979.84 211.02 989.026 207.38 996.306 200.1C1003.59 192.82 1007.23 183.634 1007.23 172.54C1007.23 161.447 1003.59 152.26 996.306 144.98C989.026 137.7 979.926 134.06 969.006 134.06C961.726 134.06 955.14 135.794 949.246 139.26C943.526 142.554 939.02 147.147 935.726 153.04C932.433 158.76 930.786 165.26 930.786 172.54C930.786 183.634 934.34 192.82 941.446 200.1Z" fill="black"/>
<path d="M1144.88 101.82H1157.36V137.7H1140.98C1130.23 137.7 1122.52 140.214 1117.84 145.24C1113.33 150.267 1111.08 158.5 1111.08 169.94V243H1073.12V102.6H1097.56L1104.32 119.76C1113.85 107.8 1127.37 101.82 1144.88 101.82Z" fill="black"/>
<path d="M1303.54 243H1257.52L1212.54 175.92V243H1174.58V51.9004H1212.54V165L1254.66 102.6H1298.6L1251.02 169.42L1303.54 243Z" fill="black"/>
<path d="M1359.82 246.9C1348.21 246.9 1337.89 244.82 1328.88 240.66C1320.04 236.5 1313.11 230.607 1308.08 222.98C1303.23 215.354 1300.8 206.6 1300.8 196.72H1337.72C1337.89 200.88 1338.93 204.434 1340.84 207.38C1342.92 210.154 1345.69 212.234 1349.16 213.62C1352.63 214.834 1356.61 215.44 1361.12 215.44C1364.76 215.44 1368.05 214.92 1371 213.88C1373.95 212.84 1376.37 211.28 1378.28 209.2C1380.19 206.947 1381.14 204.347 1381.14 201.4C1381.14 197.067 1378.89 193.86 1374.38 191.78C1369.87 189.7 1363.11 187.88 1354.1 186.32C1348.38 185.454 1343.61 184.587 1339.8 183.72C1336.16 182.854 1331.74 181.38 1326.54 179.3C1321.51 177.047 1317.44 174.534 1314.32 171.76C1311.37 168.987 1308.77 165.174 1306.52 160.32C1304.27 155.467 1303.14 149.834 1303.14 143.42C1303.14 130.247 1308.34 119.5 1318.74 111.18C1329.14 102.86 1342.75 98.7002 1359.56 98.7002C1376.55 98.7002 1390.15 103.034 1400.38 111.7C1410.78 120.194 1415.98 131.46 1415.98 145.5H1379.84C1379.84 134.407 1372.82 128.86 1358.78 128.86C1352.89 128.86 1348.29 130.074 1345 132.5C1341.71 134.927 1340.06 138.22 1340.06 142.38C1340.06 144.114 1340.49 145.76 1341.36 147.32C1342.4 148.707 1343.53 149.834 1344.74 150.7C1346.13 151.567 1348.21 152.434 1350.98 153.3C1353.75 153.994 1356.09 154.514 1358 154.86C1359.91 155.207 1362.77 155.727 1366.58 156.42C1369.87 157.114 1372.21 157.634 1373.6 157.98C1374.99 158.154 1377.33 158.587 1380.62 159.28C1383.91 159.974 1386.34 160.667 1387.9 161.36C1389.63 161.88 1391.89 162.66 1394.66 163.7C1397.61 164.74 1399.77 165.867 1401.16 167.08C1402.72 168.12 1404.54 169.42 1406.62 170.98C1408.87 172.54 1410.61 174.274 1411.82 176.18C1413.03 178.087 1414.25 180.167 1415.46 182.42C1416.67 184.674 1417.45 187.274 1417.8 190.22C1418.32 193.167 1418.58 196.287 1418.58 199.58C1418.58 213.967 1413.21 225.494 1402.46 234.16C1391.71 242.654 1377.5 246.9 1359.82 246.9Z" fill="black"/>
</mask>
<g mask="url(#mask10_146_20981)">
<path d="M1303.54 243H1257.52L1212.54 175.92V243H1174.58V51.9004H1212.54V165L1254.66 102.6H1298.6L1251.02 169.42L1303.54 243Z" stroke="white" stroke-opacity="0.3" stroke-width="2"/>
</g>
<mask id="mask11_146_20981" style="mask-type:luminance" maskUnits="userSpaceOnUse" x="28" y="50" width="1392" height="198">
<path d="M1419.9 50.9004H28.8984V247.9H1419.9V50.9004Z" fill="white"/>
<path d="M106.338 98.7004C127.658 98.7004 145.252 105.72 159.118 119.76C173.158 133.8 180.178 151.48 180.178 172.8C180.178 194.12 173.158 211.8 159.118 225.84C145.252 239.88 127.658 246.9 106.338 246.9C89.5251 246.9 74.8784 241.7 62.3984 231.3L57.9784 243H29.8984V51.9004H67.8584V110.14C79.1251 102.514 91.9518 98.7004 106.338 98.7004ZM75.9184 200.1C83.1984 207.38 92.2984 211.02 103.218 211.02C114.312 211.02 123.412 207.38 130.518 200.1C137.798 192.82 141.438 183.72 141.438 172.8C141.438 165.52 139.792 158.934 136.498 153.04C133.378 147.147 128.872 142.554 122.978 139.26C117.085 135.967 110.498 134.32 103.218 134.32C96.1118 134.32 89.6118 135.967 83.7184 139.26C77.8251 142.554 73.2318 147.147 69.9384 153.04C66.6451 158.934 64.9984 165.52 64.9984 172.8C64.9984 183.72 68.6384 192.82 75.9184 200.1Z" fill="black"/>
<path d="M266.399 246.9C252.012 246.9 239.012 243.694 227.399 237.28C215.786 230.867 206.686 222.027 200.099 210.76C193.686 199.32 190.479 186.667 190.479 172.8C190.479 151.48 197.672 133.8 212.059 119.76C226.446 105.72 244.559 98.7002 266.399 98.7002C288.066 98.7002 306.092 105.72 320.479 119.76C334.866 133.8 342.059 151.48 342.059 172.8C342.059 193.947 334.779 211.627 320.219 225.84C305.832 239.88 287.892 246.9 266.399 246.9ZM266.399 211.28C277.319 211.28 286.246 207.727 293.179 200.62C300.112 193.34 303.579 184.067 303.579 172.8C303.579 161.534 300.112 152.347 293.179 145.24C286.246 137.96 277.232 134.32 266.139 134.32C255.219 134.32 246.292 137.96 239.359 145.24C232.426 152.347 228.959 161.534 228.959 172.8C228.959 178.347 229.826 183.547 231.559 188.4C233.466 193.254 236.066 197.327 239.359 200.62C242.652 203.914 246.552 206.514 251.059 208.42C255.739 210.327 260.852 211.28 266.399 211.28Z" fill="black"/>
<path d="M428.462 246.9C414.076 246.9 401.076 243.694 389.462 237.28C377.849 230.867 368.749 222.027 362.162 210.76C355.749 199.32 352.542 186.667 352.542 172.8C352.542 151.48 359.736 133.8 374.122 119.76C388.509 105.72 406.622 98.7002 428.462 98.7002C450.129 98.7002 468.156 105.72 482.542 119.76C496.929 133.8 504.122 151.48 504.122 172.8C504.122 193.947 496.842 211.627 482.282 225.84C467.896 239.88 449.956 246.9 428.462 246.9ZM428.462 211.28C439.382 211.28 448.309 207.727 455.242 200.62C462.176 193.34 465.642 184.067 465.642 172.8C465.642 161.534 462.176 152.347 455.242 145.24C448.309 137.96 439.296 134.32 428.202 134.32C417.282 134.32 408.356 137.96 401.422 145.24C394.489 152.347 391.022 161.534 391.022 172.8C391.022 178.347 391.889 183.547 393.622 188.4C395.529 193.254 398.129 197.327 401.422 200.62C404.716 203.914 408.616 206.514 413.122 208.42C417.802 210.327 422.916 211.28 428.462 211.28Z" fill="black"/>
<path d="M656.045 243H610.025L565.045 175.92V243H527.085V51.9004H565.045V165L607.165 102.6H651.105L603.525 169.42L656.045 243Z" fill="black"/>
<path d="M824.842 99.2202C839.402 99.2202 851.276 104.42 860.462 114.82C869.822 125.22 874.502 138.567 874.502 154.86V243H836.542V161.1C836.542 142.034 829.436 132.5 815.222 132.5C809.676 132.5 804.822 133.887 800.662 136.66C796.676 139.26 793.642 143.16 791.562 148.36C789.482 153.56 788.442 159.8 788.442 167.08V243H751.262V161.1C751.262 142.034 744.416 132.5 730.722 132.5C722.056 132.5 715.296 135.534 710.442 141.6C705.589 147.667 703.162 156.16 703.162 167.08V243H665.202V102.6H691.722L698.742 120.02C703.942 113.607 710.182 108.58 717.462 104.94C724.916 101.127 732.716 99.2202 740.862 99.2202C749.702 99.2202 757.676 101.214 764.782 105.2C771.889 109.187 777.436 114.734 781.422 121.84C783.156 119.414 784.976 117.247 786.882 115.34C788.789 113.26 790.869 111.44 793.122 109.88C795.376 108.147 797.716 106.674 800.142 105.46C802.569 104.074 805.082 102.947 807.682 102.08C810.456 101.214 813.229 100.52 816.002 99.9998C818.949 99.4802 821.896 99.2202 824.842 99.2202Z" fill="black"/>
<path d="M1016.07 102.34H1044.41V242.74H1014.51L1011.39 230.26C998.56 241.354 983.393 246.9 965.886 246.9C944.74 246.9 927.146 239.88 913.106 225.84C899.24 211.627 892.306 193.86 892.306 172.54C892.306 151.394 899.24 133.8 913.106 119.76C927.146 105.72 944.74 98.7002 965.886 98.7002C983.74 98.7002 999.08 104.42 1011.91 115.86L1016.07 102.34ZM941.446 200.1C948.726 207.38 957.826 211.02 968.746 211.02C979.84 211.02 989.026 207.38 996.306 200.1C1003.59 192.82 1007.23 183.634 1007.23 172.54C1007.23 161.447 1003.59 152.26 996.306 144.98C989.026 137.7 979.926 134.06 969.006 134.06C961.726 134.06 955.14 135.794 949.246 139.26C943.526 142.554 939.02 147.147 935.726 153.04C932.433 158.76 930.786 165.26 930.786 172.54C930.786 183.634 934.34 192.82 941.446 200.1Z" fill="black"/>
<path d="M1144.88 101.82H1157.36V137.7H1140.98C1130.23 137.7 1122.52 140.214 1117.84 145.24C1113.33 150.267 1111.08 158.5 1111.08 169.94V243H1073.12V102.6H1097.56L1104.32 119.76C1113.85 107.8 1127.37 101.82 1144.88 101.82Z" fill="black"/>
<path d="M1303.54 243H1257.52L1212.54 175.92V243H1174.58V51.9004H1212.54V165L1254.66 102.6H1298.6L1251.02 169.42L1303.54 243Z" fill="black"/>
<path d="M1359.82 246.9C1348.21 246.9 1337.89 244.82 1328.88 240.66C1320.04 236.5 1313.11 230.607 1308.08 222.98C1303.23 215.354 1300.8 206.6 1300.8 196.72H1337.72C1337.89 200.88 1338.93 204.434 1340.84 207.38C1342.92 210.154 1345.69 212.234 1349.16 213.62C1352.63 214.834 1356.61 215.44 1361.12 215.44C1364.76 215.44 1368.05 214.92 1371 213.88C1373.95 212.84 1376.37 211.28 1378.28 209.2C1380.19 206.947 1381.14 204.347 1381.14 201.4C1381.14 197.067 1378.89 193.86 1374.38 191.78C1369.87 189.7 1363.11 187.88 1354.1 186.32C1348.38 185.454 1343.61 184.587 1339.8 183.72C1336.16 182.854 1331.74 181.38 1326.54 179.3C1321.51 177.047 1317.44 174.534 1314.32 171.76C1311.37 168.987 1308.77 165.174 1306.52 160.32C1304.27 155.467 1303.14 149.834 1303.14 143.42C1303.14 130.247 1308.34 119.5 1318.74 111.18C1329.14 102.86 1342.75 98.7002 1359.56 98.7002C1376.55 98.7002 1390.15 103.034 1400.38 111.7C1410.78 120.194 1415.98 131.46 1415.98 145.5H1379.84C1379.84 134.407 1372.82 128.86 1358.78 128.86C1352.89 128.86 1348.29 130.074 1345 132.5C1341.71 134.927 1340.06 138.22 1340.06 142.38C1340.06 144.114 1340.49 145.76 1341.36 147.32C1342.4 148.707 1343.53 149.834 1344.74 150.7C1346.13 151.567 1348.21 152.434 1350.98 153.3C1353.75 153.994 1356.09 154.514 1358 154.86C1359.91 155.207 1362.77 155.727 1366.58 156.42C1369.87 157.114 1372.21 157.634 1373.6 157.98C1374.99 158.154 1377.33 158.587 1380.62 159.28C1383.91 159.974 1386.34 160.667 1387.9 161.36C1389.63 161.88 1391.89 162.66 1394.66 163.7C1397.61 164.74 1399.77 165.867 1401.16 167.08C1402.72 168.12 1404.54 169.42 1406.62 170.98C1408.87 172.54 1410.61 174.274 1411.82 176.18C1413.03 178.087 1414.25 180.167 1415.46 182.42C1416.67 184.674 1417.45 187.274 1417.8 190.22C1418.32 193.167 1418.58 196.287 1418.58 199.58C1418.58 213.967 1413.21 225.494 1402.46 234.16C1391.71 242.654 1377.5 246.9 1359.82 246.9Z" fill="black"/>
</mask>
<g mask="url(#mask11_146_20981)">
<path d="M1359.82 246.9C1348.21 246.9 1337.89 244.82 1328.88 240.66C1320.04 236.5 1313.11 230.607 1308.08 222.98C1303.23 215.354 1300.8 206.6 1300.8 196.72H1337.72C1337.89 200.88 1338.93 204.434 1340.84 207.38C1342.92 210.154 1345.69 212.234 1349.16 213.62C1352.63 214.834 1356.61 215.44 1361.12 215.44C1364.76 215.44 1368.05 214.92 1371 213.88C1373.95 212.84 1376.37 211.28 1378.28 209.2C1380.19 206.947 1381.14 204.347 1381.14 201.4C1381.14 197.067 1378.89 193.86 1374.38 191.78C1369.87 189.7 1363.11 187.88 1354.1 186.32C1348.38 185.454 1343.61 184.587 1339.8 183.72C1336.16 182.854 1331.74 181.38 1326.54 179.3C1321.51 177.047 1317.44 174.534 1314.32 171.76C1311.37 168.987 1308.77 165.174 1306.52 160.32C1304.27 155.467 1303.14 149.834 1303.14 143.42C1303.14 130.247 1308.34 119.5 1318.74 111.18C1329.14 102.86 1342.75 98.7002 1359.56 98.7002C1376.55 98.7002 1390.15 103.034 1400.38 111.7C1410.78 120.194 1415.98 131.46 1415.98 145.5H1379.84C1379.84 134.407 1372.82 128.86 1358.78 128.86C1352.89 128.86 1348.29 130.074 1345 132.5C1341.71 134.927 1340.06 138.22 1340.06 142.38C1340.06 144.114 1340.49 145.76 1341.36 147.32C1342.4 148.707 1343.53 149.834 1344.74 150.7C1346.13 151.567 1348.21 152.434 1350.98 153.3C1353.75 153.994 1356.09 154.514 1358 154.86C1359.91 155.207 1362.77 155.727 1366.58 156.42C1369.87 157.114 1372.21 157.634 1373.6 157.98C1374.99 158.154 1377.33 158.587 1380.62 159.28C1383.91 159.974 1386.34 160.667 1387.9 161.36C1389.63 161.88 1391.89 162.66 1394.66 163.7C1397.61 164.74 1399.77 165.867 1401.16 167.08C1402.72 168.12 1404.54 169.42 1406.62 170.98C1408.87 172.54 1410.61 174.274 1411.82 176.18C1413.03 178.087 1414.25 180.167 1415.46 182.42C1416.67 184.674 1417.45 187.274 1417.8 190.22C1418.32 193.167 1418.58 196.287 1418.58 199.58C1418.58 213.967 1413.21 225.494 1402.46 234.16C1391.71 242.654 1377.5 246.9 1359.82 246.9Z" stroke="white" stroke-opacity="0.3" stroke-width="2"/>
</g>
</g>
</g>
</g>
</g>
<defs>
<clipPath id="clip0_146_20981">
<rect width="1440" height="270" fill="white"/>
</clipPath>
</defs>
</svg>
